<?xml version="1.0" encoding="utf-8"?>
<!-- Generator: Adobe Illustrator 15.1.0, SVG Export Plug-In . SVG Version: 6.00 Build 0)  -->
<!DOCTYPE svg PUBLIC "-//W3C//DTD SVG 1.1//EN" "http://www.w3.org/Graphics/SVG/1.1/DTD/svg11.dtd">
<svg version="1.1" id="レイヤー_1" xmlns="http://www.w3.org/2000/svg" xmlns:xlink="http://www.w3.org/1999/xlink" x="0px"
	 y="0px" width="693px" height="258px" viewBox="0 0 693 258" enable-background="new 0 0 693 258" xml:space="preserve">
<g>
	<defs>
		<polyline id="SVGID_1_" points="0,258 693,258 693,0 0,0 		"/>
	</defs>
	<clipPath id="SVGID_2_">
		<use xlink:href="#SVGID_1_"  overflow="visible"/>
	</clipPath>
	<polyline opacity="0" clip-path="url(#SVGID_2_)" fill-rule="evenodd" clip-rule="evenodd" fill="#FFFFFF" points="0,0 693,0
		693,258 0,258 	"/>
	<g clip-path="url(#SVGID_2_)">
		<defs>
			<polyline id="SVGID_3_" points="0,258 693,258 693,0 0,0 			"/>
		</defs>
		<clipPath id="SVGID_4_">
			<use xlink:href="#SVGID_3_"  overflow="visible"/>
		</clipPath>
	</g>
	<polyline clip-path="url(#SVGID_2_)" fill-rule="evenodd" clip-rule="evenodd" fill="#EDF2D9" points="3.169,1.504 689.59,1.504
		689.59,252.367 3.169,252.367 	"/>
	<g clip-path="url(#SVGID_2_)">
		<path d="M553.002,20.206c0,0.124-0.006,0.223-0.02,0.298s-0.027,0.135-0.044,0.181s-0.038,0.076-0.063,0.093
			s-0.059,0.024-0.098,0.024c-0.045,0-0.103-0.015-0.171-0.044s-0.151-0.062-0.249-0.098s-0.213-0.068-0.347-0.098
			s-0.288-0.044-0.464-0.044c-0.24,0-0.445,0.039-0.615,0.117s-0.307,0.2-0.41,0.366s-0.18,0.381-0.225,0.645
			s-0.068,0.584-0.068,0.962v0.957h1.963c0.053,0,0.096,0.012,0.132,0.034s0.068,0.062,0.098,0.117s0.052,0.125,0.068,0.21
			s0.024,0.188,0.024,0.312c0,0.234-0.029,0.403-0.088,0.508s-0.137,0.156-0.234,0.156h-1.963v7.705
			c0,0.052-0.014,0.096-0.039,0.132s-0.07,0.066-0.132,0.093s-0.146,0.046-0.249,0.059s-0.234,0.02-0.391,0.02
			s-0.287-0.007-0.391-0.02s-0.188-0.032-0.249-0.059s-0.106-0.057-0.132-0.093s-0.039-0.08-0.039-0.132v-7.705h-1.24
			c-0.104,0-0.182-0.052-0.234-0.156s-0.078-0.273-0.078-0.508c0-0.124,0.006-0.228,0.02-0.312s0.033-0.154,0.059-0.21
			s0.059-0.095,0.098-0.117s0.084-0.034,0.137-0.034h1.24v-0.908c0-0.612,0.057-1.138,0.171-1.577s0.288-0.799,0.522-1.079
			s0.529-0.486,0.884-0.62s0.772-0.2,1.255-0.2c0.229,0,0.449,0.021,0.664,0.063s0.381,0.088,0.498,0.137s0.195,0.093,0.234,0.132
			s0.072,0.09,0.098,0.151s0.044,0.137,0.054,0.225S553.002,20.082,553.002,20.206z"/>
		<path d="M559.428,24.396c0,0.144-0.004,0.264-0.01,0.361s-0.02,0.174-0.039,0.229s-0.044,0.098-0.073,0.127
			s-0.069,0.044-0.122,0.044s-0.115-0.015-0.19-0.044s-0.159-0.059-0.254-0.088s-0.2-0.057-0.317-0.083s-0.244-0.039-0.381-0.039
			c-0.162,0-0.322,0.032-0.479,0.098s-0.32,0.173-0.493,0.322s-0.353,0.349-0.542,0.596s-0.396,0.55-0.625,0.908v5.781
			c0,0.052-0.014,0.096-0.039,0.132s-0.068,0.066-0.127,0.093s-0.141,0.046-0.244,0.059s-0.238,0.02-0.4,0.02
			c-0.156,0-0.287-0.007-0.391-0.02s-0.188-0.032-0.249-0.059s-0.104-0.057-0.127-0.093s-0.034-0.08-0.034-0.132v-8.789
			c0-0.052,0.01-0.096,0.029-0.132s0.059-0.068,0.117-0.098s0.133-0.049,0.225-0.059s0.211-0.015,0.361-0.015
			c0.143,0,0.262,0.005,0.356,0.015s0.167,0.029,0.22,0.059s0.09,0.062,0.112,0.098s0.034,0.08,0.034,0.132v1.279
			c0.24-0.352,0.467-0.638,0.679-0.859s0.411-0.396,0.601-0.522s0.376-0.215,0.562-0.264s0.372-0.073,0.562-0.073
			c0.084,0,0.181,0.005,0.288,0.015s0.22,0.027,0.337,0.054s0.223,0.056,0.317,0.088s0.161,0.065,0.2,0.098s0.064,0.063,0.078,0.093
			s0.024,0.066,0.034,0.112s0.017,0.112,0.02,0.2S559.428,24.246,559.428,24.396z"/>
		<path d="M568.764,27.833c0,0.254-0.064,0.435-0.191,0.542s-0.273,0.161-0.437,0.161h-5.788c0,0.488,0.049,0.928,0.146,1.318
			c0.099,0.391,0.262,0.726,0.491,1.006s0.526,0.495,0.894,0.645c0.365,0.149,0.814,0.225,1.344,0.225
			c0.419,0,0.791-0.034,1.119-0.103c0.326-0.068,0.609-0.145,0.849-0.229s0.435-0.161,0.589-0.229s0.27-0.103,0.349-0.103
			c0.046,0,0.087,0.012,0.122,0.034c0.036,0.022,0.064,0.057,0.084,0.103s0.034,0.109,0.044,0.19s0.015,0.181,0.015,0.298
			c0,0.085-0.004,0.158-0.01,0.22s-0.015,0.117-0.024,0.166s-0.026,0.093-0.049,0.132s-0.052,0.076-0.088,0.112
			s-0.142,0.095-0.317,0.176s-0.404,0.161-0.684,0.239s-0.604,0.148-0.972,0.21s-0.761,0.093-1.177,0.093
			c-0.723,0-1.355-0.101-1.899-0.303s-1.001-0.501-1.372-0.898s-0.65-0.896-0.84-1.494s-0.283-1.296-0.283-2.09
			c0-0.755,0.098-1.434,0.293-2.036s0.477-1.113,0.845-1.533s0.812-0.742,1.333-0.967s1.104-0.337,1.748-0.337
			c0.689,0,1.277,0.11,1.763,0.332s0.884,0.52,1.196,0.894s0.542,0.813,0.688,1.318s0.22,1.043,0.22,1.616V27.833z M567.143,27.354
			c0.02-0.847-0.169-1.511-0.564-1.992c-0.396-0.481-0.984-0.723-1.764-0.723c-0.4,0-0.75,0.075-1.052,0.225
			s-0.554,0.349-0.757,0.596s-0.36,0.535-0.472,0.864s-0.173,0.672-0.187,1.03H567.143z"/>
		<path d="M578.744,36.095c0,0.052-0.015,0.098-0.044,0.137s-0.073,0.071-0.132,0.098s-0.141,0.046-0.244,0.059
			s-0.234,0.02-0.391,0.02c-0.162,0-0.295-0.007-0.396-0.02s-0.185-0.032-0.249-0.059s-0.109-0.059-0.132-0.098
			s-0.034-0.085-0.034-0.137v-4.502c-0.268,0.267-0.521,0.493-0.762,0.679s-0.479,0.335-0.713,0.449s-0.471,0.195-0.708,0.244
			s-0.483,0.073-0.737,0.073c-0.639,0-1.182-0.125-1.631-0.376s-0.815-0.589-1.099-1.016s-0.489-0.928-0.62-1.504
			s-0.195-1.184-0.195-1.821c0-0.755,0.082-1.438,0.244-2.046s0.405-1.128,0.728-1.558s0.72-0.76,1.191-0.991
			s1.017-0.347,1.636-0.347c0.26,0,0.504,0.027,0.732,0.083s0.454,0.144,0.679,0.264s0.452,0.276,0.684,0.469
			s0.483,0.422,0.757,0.688v-1.064c0-0.059,0.014-0.105,0.039-0.142s0.068-0.066,0.127-0.093s0.133-0.044,0.225-0.054
			s0.205-0.015,0.342-0.015c0.131,0,0.24,0.005,0.332,0.015s0.164,0.027,0.22,0.054s0.095,0.057,0.117,0.093
			s0.034,0.083,0.034,0.142V36.095z M577.123,26.427c-0.436-0.54-0.857-0.952-1.265-1.235s-0.831-0.425-1.274-0.425
			c-0.41,0-0.758,0.098-1.045,0.293s-0.52,0.452-0.698,0.771s-0.31,0.681-0.391,1.084s-0.122,0.813-0.122,1.23
			c0,0.449,0.034,0.886,0.103,1.309s0.187,0.798,0.356,1.123s0.395,0.588,0.674,0.786s0.631,0.298,1.055,0.298
			c0.215,0,0.422-0.029,0.62-0.088s0.401-0.156,0.61-0.293s0.426-0.314,0.654-0.532s0.469-0.486,0.723-0.806V26.427z"/>
		<path d="M589.252,32.608c0,0.052-0.012,0.096-0.034,0.132s-0.063,0.066-0.122,0.093s-0.135,0.046-0.229,0.059
			s-0.21,0.02-0.347,0.02c-0.15,0-0.271-0.007-0.366-0.02s-0.169-0.032-0.225-0.059s-0.093-0.057-0.112-0.093
			s-0.029-0.08-0.029-0.132v-1.162c-0.502,0.554-0.996,0.957-1.484,1.211s-0.982,0.381-1.484,0.381
			c-0.586,0-1.079-0.098-1.479-0.293s-0.724-0.461-0.972-0.796s-0.425-0.726-0.532-1.172s-0.161-0.988-0.161-1.626v-5.332
			c0-0.052,0.012-0.096,0.034-0.132s0.067-0.068,0.132-0.098s0.15-0.049,0.254-0.059s0.234-0.015,0.391-0.015
			s0.287,0.005,0.391,0.015s0.188,0.029,0.249,0.059s0.106,0.062,0.132,0.098s0.039,0.08,0.039,0.132v5.117
			c0,0.515,0.037,0.926,0.112,1.235s0.188,0.573,0.342,0.791s0.347,0.388,0.581,0.508s0.508,0.181,0.82,0.181
			c0.404,0,0.806-0.144,1.206-0.43s0.825-0.706,1.274-1.26v-6.143c0-0.052,0.012-0.096,0.034-0.132s0.067-0.068,0.132-0.098
			s0.148-0.049,0.249-0.059s0.233-0.015,0.396-0.015c0.156,0,0.287,0.005,0.391,0.015s0.186,0.029,0.244,0.059
			s0.103,0.062,0.132,0.098s0.044,0.08,0.044,0.132V32.608z"/>
		<path d="M599.73,27.833c0,0.254-0.064,0.435-0.191,0.542s-0.273,0.161-0.437,0.161h-5.788c0,0.488,0.049,0.928,0.146,1.318
			c0.099,0.391,0.262,0.726,0.491,1.006s0.526,0.495,0.894,0.645c0.365,0.149,0.814,0.225,1.344,0.225
			c0.419,0,0.791-0.034,1.119-0.103c0.326-0.068,0.609-0.145,0.849-0.229s0.435-0.161,0.589-0.229s0.27-0.103,0.349-0.103
			c0.046,0,0.087,0.012,0.122,0.034c0.036,0.022,0.064,0.057,0.084,0.103s0.034,0.109,0.044,0.19s0.015,0.181,0.015,0.298
			c0,0.085-0.004,0.158-0.01,0.22s-0.015,0.117-0.024,0.166s-0.026,0.093-0.049,0.132s-0.052,0.076-0.088,0.112
			s-0.142,0.095-0.317,0.176s-0.404,0.161-0.684,0.239s-0.604,0.148-0.972,0.21s-0.761,0.093-1.177,0.093
			c-0.723,0-1.355-0.101-1.899-0.303s-1.001-0.501-1.372-0.898s-0.65-0.896-0.84-1.494s-0.283-1.296-0.283-2.09
			c0-0.755,0.098-1.434,0.293-2.036s0.477-1.113,0.845-1.533s0.812-0.742,1.333-0.967s1.104-0.337,1.748-0.337
			c0.689,0,1.277,0.11,1.763,0.332s0.884,0.52,1.196,0.894s0.542,0.813,0.688,1.318s0.22,1.043,0.22,1.616V27.833z M598.109,27.354
			c0.02-0.847-0.169-1.511-0.564-1.992c-0.396-0.481-0.984-0.723-1.764-0.723c-0.4,0-0.75,0.075-1.052,0.225
			s-0.554,0.349-0.757,0.596s-0.36,0.535-0.472,0.864s-0.173,0.672-0.187,1.03H598.109z"/>
		<path d="M609.75,32.608c0,0.052-0.014,0.096-0.039,0.132s-0.068,0.066-0.127,0.093s-0.141,0.046-0.244,0.059
			s-0.234,0.02-0.391,0.02c-0.162,0-0.297-0.007-0.4-0.02s-0.186-0.032-0.244-0.059s-0.102-0.057-0.127-0.093
			s-0.039-0.08-0.039-0.132v-5.146c0-0.501-0.039-0.905-0.117-1.211s-0.191-0.569-0.342-0.791s-0.344-0.391-0.581-0.508
			s-0.513-0.176-0.825-0.176c-0.404,0-0.807,0.144-1.211,0.43s-0.826,0.706-1.27,1.26v6.143c0,0.052-0.014,0.096-0.039,0.132
			s-0.068,0.066-0.127,0.093s-0.141,0.046-0.244,0.059s-0.238,0.02-0.4,0.02c-0.156,0-0.287-0.007-0.391-0.02
			s-0.188-0.032-0.249-0.059s-0.104-0.057-0.127-0.093s-0.034-0.08-0.034-0.132v-8.789c0-0.052,0.01-0.096,0.029-0.132
			s0.059-0.068,0.117-0.098s0.133-0.049,0.225-0.059s0.211-0.015,0.361-0.015c0.143,0,0.262,0.005,0.356,0.015
			s0.167,0.029,0.22,0.059s0.09,0.062,0.112,0.098s0.034,0.08,0.034,0.132v1.162c0.494-0.554,0.988-0.959,1.479-1.216
			s0.987-0.386,1.489-0.386c0.586,0,1.079,0.1,1.479,0.298s0.724,0.464,0.972,0.796s0.425,0.721,0.532,1.167
			s0.161,0.981,0.161,1.606V32.608z"/>
		<path d="M619.008,31.271c0,0.11-0.004,0.207-0.01,0.288s-0.018,0.149-0.034,0.205s-0.036,0.104-0.059,0.146
			s-0.075,0.104-0.156,0.186s-0.22,0.183-0.415,0.303s-0.415,0.228-0.659,0.322s-0.509,0.171-0.796,0.229s-0.582,0.088-0.889,0.088
			c-0.631,0-1.191-0.104-1.68-0.312s-0.896-0.513-1.226-0.913s-0.579-0.892-0.752-1.475s-0.259-1.255-0.259-2.017
			c0-0.866,0.105-1.609,0.317-2.231s0.501-1.131,0.869-1.528s0.801-0.691,1.299-0.884s1.036-0.288,1.616-0.288
			c0.279,0,0.552,0.026,0.815,0.078s0.507,0.12,0.728,0.205s0.418,0.183,0.591,0.293s0.298,0.205,0.376,0.283
			s0.132,0.14,0.161,0.186s0.054,0.1,0.073,0.161s0.033,0.132,0.039,0.21s0.01,0.176,0.01,0.293c0,0.254-0.029,0.432-0.088,0.532
			s-0.131,0.151-0.215,0.151c-0.098,0-0.21-0.054-0.337-0.161s-0.288-0.227-0.483-0.356s-0.432-0.249-0.708-0.356
			s-0.604-0.161-0.981-0.161c-0.775,0-1.369,0.298-1.782,0.894s-0.62,1.46-0.62,2.593c0,0.566,0.054,1.062,0.161,1.489
			s0.265,0.783,0.474,1.069s0.464,0.5,0.767,0.64s0.649,0.21,1.04,0.21c0.371,0,0.697-0.059,0.977-0.176s0.522-0.246,0.728-0.386
			s0.378-0.267,0.518-0.381s0.249-0.171,0.327-0.171c0.045,0,0.084,0.013,0.117,0.039s0.061,0.07,0.083,0.132
			s0.039,0.14,0.049,0.234S619.008,31.141,619.008,31.271z"/>
		<path d="M625.15,32.853l-1.172,3.232c-0.039,0.104-0.139,0.184-0.298,0.239s-0.401,0.083-0.728,0.083
			c-0.17,0-0.307-0.008-0.41-0.024s-0.184-0.044-0.239-0.083s-0.087-0.091-0.093-0.156s0.01-0.144,0.049-0.234l1.211-3.057
			c-0.059-0.026-0.113-0.068-0.166-0.127s-0.088-0.12-0.107-0.186l-3.135-8.398c-0.053-0.137-0.078-0.244-0.078-0.322
			s0.025-0.14,0.078-0.186s0.137-0.076,0.254-0.093s0.273-0.024,0.469-0.024s0.348,0.005,0.459,0.015s0.199,0.027,0.264,0.054
			s0.112,0.063,0.142,0.112s0.06,0.115,0.093,0.2l2.51,7.051h0.029l2.422-7.09c0.039-0.124,0.086-0.203,0.142-0.239
			s0.138-0.062,0.249-0.078s0.27-0.024,0.479-0.024c0.182,0,0.332,0.008,0.449,0.024s0.203,0.047,0.259,0.093
			s0.083,0.107,0.083,0.186s-0.02,0.176-0.059,0.293L625.15,32.853z"/>
		<path d="M639.857,24.396c0,0.144-0.004,0.264-0.01,0.361s-0.02,0.174-0.039,0.229s-0.044,0.098-0.073,0.127
			s-0.069,0.044-0.122,0.044s-0.115-0.015-0.19-0.044s-0.159-0.059-0.254-0.088s-0.2-0.057-0.317-0.083s-0.244-0.039-0.381-0.039
			c-0.162,0-0.322,0.032-0.479,0.098s-0.32,0.173-0.493,0.322s-0.353,0.349-0.542,0.596s-0.396,0.55-0.625,0.908v5.781
			c0,0.052-0.014,0.096-0.039,0.132s-0.068,0.066-0.127,0.093s-0.141,0.046-0.244,0.059s-0.238,0.02-0.4,0.02
			c-0.156,0-0.287-0.007-0.391-0.02s-0.188-0.032-0.249-0.059s-0.104-0.057-0.127-0.093s-0.034-0.08-0.034-0.132v-8.789
			c0-0.052,0.01-0.096,0.029-0.132s0.059-0.068,0.117-0.098s0.133-0.049,0.225-0.059s0.211-0.015,0.361-0.015
			c0.143,0,0.262,0.005,0.356,0.015s0.167,0.029,0.22,0.059s0.09,0.062,0.112,0.098s0.034,0.08,0.034,0.132v1.279
			c0.24-0.352,0.467-0.638,0.679-0.859s0.411-0.396,0.601-0.522s0.376-0.215,0.562-0.264s0.372-0.073,0.562-0.073
			c0.084,0,0.181,0.005,0.288,0.015s0.22,0.027,0.337,0.054s0.223,0.056,0.317,0.088s0.161,0.065,0.2,0.098s0.064,0.063,0.078,0.093
			s0.024,0.066,0.034,0.112s0.017,0.112,0.02,0.2S639.857,24.246,639.857,24.396z"/>
		<path d="M648.314,32.618c0,0.078-0.025,0.137-0.078,0.176s-0.123,0.068-0.215,0.088s-0.225,0.029-0.4,0.029
			c-0.17,0-0.305-0.01-0.405-0.029s-0.175-0.049-0.22-0.088s-0.068-0.098-0.068-0.176v-0.879c-0.385,0.41-0.812,0.729-1.284,0.957
			s-0.972,0.342-1.499,0.342c-0.463,0-0.881-0.061-1.255-0.181s-0.693-0.295-0.957-0.522s-0.469-0.508-0.615-0.84
			s-0.22-0.71-0.22-1.133c0-0.495,0.102-0.925,0.303-1.289s0.492-0.667,0.869-0.908s0.84-0.422,1.387-0.542s1.162-0.181,1.846-0.181
			h1.211v-0.684c0-0.339-0.035-0.638-0.107-0.898s-0.188-0.477-0.347-0.649s-0.366-0.303-0.62-0.391s-0.566-0.132-0.938-0.132
			c-0.396,0-0.754,0.047-1.069,0.142s-0.593,0.198-0.83,0.312s-0.437,0.218-0.596,0.312s-0.278,0.142-0.356,0.142
			c-0.053,0-0.098-0.013-0.137-0.039s-0.073-0.065-0.103-0.117s-0.05-0.119-0.063-0.2s-0.02-0.171-0.02-0.269
			c0-0.163,0.012-0.291,0.034-0.386s0.078-0.184,0.166-0.269s0.239-0.184,0.454-0.298s0.463-0.218,0.742-0.312
			s0.586-0.173,0.918-0.234s0.668-0.093,1.006-0.093c0.631,0,1.168,0.071,1.611,0.215s0.801,0.354,1.074,0.63s0.473,0.62,0.596,1.03
			s0.186,0.889,0.186,1.436V32.618z M646.713,28.604h-1.377c-0.443,0-0.826,0.037-1.152,0.112s-0.596,0.186-0.811,0.332
			s-0.373,0.322-0.474,0.527s-0.151,0.441-0.151,0.708c0,0.456,0.145,0.818,0.435,1.089s0.694,0.405,1.216,0.405
			c0.424,0,0.815-0.107,1.177-0.322s0.741-0.544,1.138-0.986V28.604z"/>
		<path d="M658.92,23.565c0.195,0,0.328,0.044,0.4,0.132s0.107,0.217,0.107,0.386v8.525c0,0.052-0.014,0.096-0.039,0.132
			s-0.07,0.066-0.132,0.093s-0.146,0.046-0.249,0.059s-0.23,0.02-0.381,0.02c-0.162,0-0.297-0.007-0.4-0.02
			s-0.188-0.032-0.249-0.059s-0.106-0.057-0.132-0.093s-0.039-0.08-0.039-0.132v-7.705h-4.541v4.902c0,0.605,0.09,1.062,0.269,1.372
			s0.499,0.464,0.962,0.464c0.15,0,0.283-0.015,0.4-0.044s0.221-0.061,0.312-0.093s0.17-0.063,0.234-0.093s0.123-0.044,0.176-0.044
			c0.033,0,0.063,0.008,0.093,0.024s0.052,0.047,0.068,0.093s0.03,0.107,0.044,0.186s0.02,0.176,0.02,0.293
			c0,0.188-0.014,0.337-0.039,0.444s-0.064,0.188-0.117,0.244s-0.131,0.105-0.234,0.151s-0.223,0.083-0.356,0.112
			s-0.274,0.054-0.425,0.073s-0.299,0.029-0.449,0.029c-0.455,0-0.846-0.061-1.172-0.181s-0.592-0.303-0.801-0.547
			s-0.359-0.554-0.454-0.928s-0.142-0.815-0.142-1.323v-5.137h-1.23c-0.098,0-0.176-0.052-0.234-0.156s-0.088-0.273-0.088-0.508
			c0-0.124,0.008-0.228,0.024-0.312s0.038-0.154,0.063-0.21s0.061-0.095,0.103-0.117s0.089-0.034,0.142-0.034h1.221v-2.09
			c0-0.046,0.012-0.088,0.034-0.127s0.065-0.073,0.127-0.103s0.146-0.051,0.249-0.063s0.234-0.02,0.391-0.02
			c0.162,0,0.297,0.007,0.4,0.02s0.186,0.034,0.244,0.063s0.102,0.063,0.127,0.103s0.039,0.081,0.039,0.127v2.09H658.92z
			 M659.613,20.851c0,0.378-0.072,0.635-0.215,0.771s-0.406,0.205-0.791,0.205c-0.377,0-0.637-0.066-0.776-0.2
			s-0.21-0.386-0.21-0.757c0-0.378,0.072-0.635,0.215-0.771s0.406-0.205,0.791-0.205c0.377,0,0.637,0.066,0.776,0.2
			S659.613,20.479,659.613,20.851z"/>
		<path d="M670.59,28.116c0,0.716-0.094,1.375-0.283,1.978s-0.471,1.121-0.845,1.558s-0.843,0.776-1.406,1.021
			s-1.216,0.366-1.958,0.366c-0.723,0-1.353-0.107-1.89-0.322s-0.985-0.527-1.343-0.938s-0.625-0.908-0.801-1.494
			s-0.264-1.25-0.264-1.992c0-0.716,0.093-1.375,0.278-1.978s0.466-1.121,0.84-1.558s0.841-0.774,1.401-1.016
			s1.215-0.361,1.963-0.361c0.723,0,1.353,0.107,1.89,0.322s0.985,0.527,1.343,0.938s0.627,0.908,0.806,1.494
			S670.59,27.381,670.59,28.116z M668.92,28.224c0-0.476-0.045-0.925-0.133-1.348c-0.089-0.423-0.235-0.794-0.439-1.113
			c-0.203-0.319-0.479-0.571-0.827-0.757s-0.782-0.278-1.301-0.278c-0.479,0-0.892,0.085-1.236,0.254s-0.63,0.408-0.853,0.718
			c-0.224,0.31-0.389,0.676-0.498,1.099c-0.107,0.423-0.162,0.886-0.162,1.387c0,0.481,0.045,0.935,0.133,1.357
			c0.089,0.423,0.236,0.793,0.443,1.108s0.484,0.566,0.833,0.752s0.782,0.278,1.301,0.278c0.473,0,0.884-0.085,1.231-0.254
			s0.634-0.407,0.857-0.713c0.223-0.306,0.388-0.671,0.492-1.094C668.867,29.197,668.92,28.731,668.92,28.224z"/>
	</g>
	<g clip-path="url(#SVGID_2_)">
		<path d="M258.025,242.819c0,0.148-0.012,0.273-0.035,0.375s-0.055,0.184-0.094,0.246s-0.084,0.107-0.135,0.135
			s-0.104,0.041-0.158,0.041h-7.922c-0.055,0-0.105-0.014-0.152-0.041s-0.092-0.072-0.135-0.135s-0.076-0.145-0.1-0.246
			s-0.035-0.227-0.035-0.375c0-0.141,0.012-0.262,0.035-0.363s0.053-0.186,0.088-0.252s0.078-0.117,0.129-0.152
			s0.107-0.053,0.17-0.053h3.164v-11.531l-2.93,1.746c-0.148,0.078-0.268,0.125-0.357,0.141s-0.162-0.002-0.217-0.053
			s-0.092-0.135-0.111-0.252s-0.029-0.266-0.029-0.445c0-0.133,0.006-0.246,0.018-0.34s0.029-0.172,0.053-0.234
			s0.057-0.117,0.1-0.164s0.1-0.094,0.17-0.141l3.492-2.238c0.031-0.023,0.07-0.043,0.117-0.059s0.105-0.031,0.176-0.047
			s0.152-0.025,0.246-0.029s0.211-0.006,0.352-0.006c0.188,0,0.344,0.008,0.469,0.023s0.223,0.037,0.293,0.064
			s0.117,0.062,0.141,0.105s0.035,0.088,0.035,0.135v13.324h2.742c0.062,0,0.121,0.018,0.176,0.053s0.1,0.086,0.135,0.152
			s0.062,0.15,0.082,0.252S258.025,242.679,258.025,242.819z"/>
		<path d="M270.154,242.749c0,0.141-0.01,0.266-0.029,0.375s-0.047,0.201-0.082,0.275s-0.082,0.129-0.141,0.164
			s-0.123,0.053-0.193,0.053h-8.379c-0.109,0-0.205-0.014-0.287-0.041s-0.152-0.072-0.211-0.135s-0.102-0.152-0.129-0.27
			s-0.041-0.262-0.041-0.434c0-0.156,0.006-0.293,0.018-0.41s0.038-0.221,0.079-0.311c0.04-0.09,0.09-0.18,0.151-0.27
			s0.139-0.186,0.235-0.287l3.031-3.117c0.7-0.719,1.262-1.363,1.685-1.934c0.422-0.57,0.749-1.09,0.978-1.559
			s0.38-0.895,0.453-1.277c0.073-0.383,0.109-0.742,0.109-1.078s-0.057-0.654-0.169-0.955s-0.276-0.564-0.49-0.791
			c-0.213-0.227-0.481-0.406-0.804-0.539c-0.322-0.133-0.693-0.199-1.112-0.199c-0.492,0-0.933,0.066-1.324,0.199
			c-0.391,0.133-0.734,0.277-1.028,0.434c-0.294,0.156-0.54,0.301-0.737,0.434s-0.345,0.199-0.441,0.199
			c-0.056,0-0.107-0.016-0.151-0.047c-0.044-0.031-0.081-0.082-0.108-0.152c-0.028-0.07-0.051-0.164-0.066-0.281
			c-0.017-0.117-0.024-0.258-0.024-0.422c0-0.117,0.004-0.219,0.012-0.305s0.021-0.16,0.041-0.223s0.045-0.121,0.076-0.176
			s0.094-0.123,0.188-0.205s0.256-0.193,0.486-0.334s0.52-0.279,0.867-0.416s0.73-0.252,1.148-0.346s0.857-0.141,1.318-0.141
			c0.734,0,1.377,0.104,1.928,0.311s1.008,0.49,1.371,0.85s0.635,0.777,0.814,1.254s0.27,0.984,0.27,1.523
			c0,0.484-0.043,0.967-0.129,1.447s-0.268,1-0.545,1.559s-0.678,1.18-1.201,1.863s-1.219,1.471-2.086,2.361l-2.402,2.508h6.598
			c0.062,0,0.123,0.018,0.182,0.053s0.109,0.088,0.152,0.158s0.074,0.158,0.094,0.264S270.154,242.608,270.154,242.749z"/>
		<path d="M284.193,242.55c0,0.227-0.016,0.406-0.047,0.539s-0.078,0.23-0.141,0.293s-0.156,0.121-0.281,0.176
			s-0.268,0.1-0.428,0.135s-0.33,0.064-0.51,0.088s-0.359,0.035-0.539,0.035c-0.547,0-1.016-0.072-1.406-0.217
			s-0.711-0.363-0.961-0.656s-0.432-0.664-0.545-1.113s-0.17-0.979-0.17-1.588v-6.164h-1.477c-0.117,0-0.211-0.062-0.281-0.188
			s-0.105-0.328-0.105-0.609c0-0.148,0.01-0.273,0.029-0.375s0.045-0.186,0.076-0.252s0.072-0.113,0.123-0.141
			s0.107-0.041,0.17-0.041h1.465v-2.508c0-0.055,0.014-0.105,0.041-0.152s0.078-0.088,0.152-0.123s0.174-0.061,0.299-0.076
			s0.281-0.023,0.469-0.023c0.195,0,0.355,0.008,0.48,0.023s0.223,0.041,0.293,0.076s0.121,0.076,0.152,0.123
			s0.047,0.098,0.047,0.152v2.508h2.707c0.062,0,0.117,0.014,0.164,0.041s0.088,0.074,0.123,0.141s0.061,0.15,0.076,0.252
			s0.023,0.227,0.023,0.375c0,0.281-0.035,0.484-0.105,0.609s-0.164,0.188-0.281,0.188h-2.707v5.883
			c0,0.727,0.107,1.275,0.322,1.646s0.6,0.557,1.154,0.557c0.18,0,0.34-0.018,0.48-0.053s0.266-0.072,0.375-0.111
			s0.203-0.076,0.281-0.111s0.148-0.053,0.211-0.053c0.039,0,0.076,0.01,0.111,0.029s0.062,0.057,0.082,0.111
			s0.037,0.129,0.053,0.223S284.193,242.409,284.193,242.55z"/>
		<path d="M296.556,237.933c0,0.859-0.113,1.65-0.34,2.373s-0.564,1.346-1.014,1.869s-1.012,0.932-1.688,1.225
			s-1.459,0.439-2.35,0.439c-0.867,0-1.623-0.129-2.268-0.387s-1.182-0.633-1.611-1.125s-0.75-1.09-0.961-1.793
			s-0.316-1.5-0.316-2.391c0-0.859,0.111-1.65,0.334-2.373s0.559-1.346,1.008-1.869s1.01-0.93,1.682-1.219s1.457-0.434,2.355-0.434
			c0.867,0,1.623,0.129,2.268,0.387s1.182,0.633,1.611,1.125s0.752,1.09,0.967,1.793S296.556,237.05,296.556,237.933z
			 M294.552,238.062c0-0.57-0.053-1.109-0.16-1.617s-0.282-0.953-0.526-1.336c-0.244-0.383-0.575-0.686-0.993-0.908
			s-0.938-0.334-1.561-0.334c-0.575,0-1.07,0.102-1.484,0.305s-0.755,0.49-1.023,0.861s-0.467,0.811-0.597,1.318
			c-0.13,0.508-0.195,1.062-0.195,1.664c0,0.578,0.053,1.121,0.16,1.629s0.284,0.951,0.532,1.33c0.248,0.379,0.581,0.68,0.999,0.902
			c0.417,0.223,0.938,0.334,1.561,0.334c0.567,0,1.06-0.102,1.478-0.305c0.417-0.203,0.76-0.488,1.028-0.855
			s0.465-0.805,0.591-1.312C294.489,239.229,294.552,238.671,294.552,238.062z"/>
		<path d="M308.486,243.323c0,0.062-0.016,0.115-0.047,0.158s-0.082,0.08-0.152,0.111s-0.168,0.055-0.293,0.07
			s-0.281,0.023-0.469,0.023c-0.195,0-0.355-0.008-0.48-0.023s-0.223-0.039-0.293-0.07s-0.121-0.068-0.152-0.111
			s-0.047-0.096-0.047-0.158v-6.176c0-0.602-0.047-1.086-0.141-1.453s-0.23-0.684-0.41-0.949s-0.412-0.469-0.697-0.609
			s-0.615-0.211-0.99-0.211c-0.484,0-0.969,0.172-1.453,0.516s-0.992,0.848-1.523,1.512v7.371c0,0.062-0.016,0.115-0.047,0.158
			s-0.082,0.08-0.152,0.111s-0.168,0.055-0.293,0.07s-0.285,0.023-0.48,0.023c-0.188,0-0.344-0.008-0.469-0.023
			s-0.225-0.039-0.299-0.07s-0.125-0.068-0.152-0.111s-0.041-0.096-0.041-0.158v-10.547c0-0.062,0.012-0.115,0.035-0.158
			s0.07-0.082,0.141-0.117s0.16-0.059,0.27-0.07s0.254-0.018,0.434-0.018c0.172,0,0.314,0.006,0.428,0.018s0.201,0.035,0.264,0.07
			s0.107,0.074,0.135,0.117s0.041,0.096,0.041,0.158v1.395c0.594-0.664,1.186-1.15,1.775-1.459s1.186-0.463,1.787-0.463
			c0.703,0,1.295,0.119,1.775,0.357s0.869,0.557,1.166,0.955s0.51,0.865,0.639,1.4s0.193,1.178,0.193,1.928V243.323z"/>
		<path d="M321.013,237.593c0,0.305-0.077,0.521-0.229,0.65c-0.153,0.129-0.328,0.193-0.524,0.193h-6.946
			c0,0.586,0.059,1.113,0.177,1.582c0.118,0.469,0.314,0.871,0.589,1.207c0.274,0.336,0.632,0.594,1.071,0.773
			s0.978,0.27,1.613,0.27c0.502,0,0.95-0.041,1.342-0.123s0.732-0.174,1.019-0.275s0.522-0.193,0.707-0.275s0.324-0.123,0.418-0.123
			c0.055,0,0.104,0.014,0.147,0.041c0.043,0.027,0.077,0.068,0.1,0.123s0.042,0.131,0.053,0.229s0.018,0.217,0.018,0.357
			c0,0.102-0.004,0.189-0.012,0.264s-0.018,0.141-0.029,0.199s-0.031,0.111-0.059,0.158s-0.062,0.092-0.105,0.135
			s-0.17,0.113-0.381,0.211s-0.484,0.193-0.82,0.287s-0.725,0.178-1.166,0.252s-0.912,0.111-1.412,0.111
			c-0.867,0-1.627-0.121-2.279-0.363s-1.201-0.602-1.646-1.078s-0.781-1.074-1.008-1.793s-0.34-1.555-0.34-2.508
			c0-0.906,0.117-1.721,0.352-2.443s0.572-1.336,1.014-1.84s0.975-0.891,1.6-1.16s1.324-0.404,2.098-0.404
			c0.828,0,1.533,0.133,2.115,0.398s1.061,0.623,1.436,1.072s0.65,0.977,0.826,1.582s0.264,1.252,0.264,1.939V237.593z
			 M319.068,237.019c0.023-1.016-0.203-1.812-0.678-2.391c-0.475-0.578-1.181-0.867-2.116-0.867c-0.479,0-0.9,0.09-1.262,0.27
			c-0.361,0.18-0.664,0.418-0.908,0.715s-0.433,0.643-0.566,1.037c-0.134,0.395-0.208,0.807-0.224,1.236H319.068z"/>
		<path d="M334.865,242.55c0,0.227-0.016,0.406-0.047,0.539s-0.078,0.23-0.141,0.293s-0.156,0.121-0.281,0.176
			s-0.268,0.1-0.428,0.135s-0.33,0.064-0.51,0.088s-0.359,0.035-0.539,0.035c-0.547,0-1.016-0.072-1.406-0.217
			s-0.711-0.363-0.961-0.656s-0.432-0.664-0.545-1.113s-0.17-0.979-0.17-1.588v-6.164h-1.477c-0.117,0-0.211-0.062-0.281-0.188
			s-0.105-0.328-0.105-0.609c0-0.148,0.01-0.273,0.029-0.375s0.045-0.186,0.076-0.252s0.072-0.113,0.123-0.141
			s0.107-0.041,0.17-0.041h1.465v-2.508c0-0.055,0.014-0.105,0.041-0.152s0.078-0.088,0.152-0.123s0.174-0.061,0.299-0.076
			s0.281-0.023,0.469-0.023c0.195,0,0.355,0.008,0.48,0.023s0.223,0.041,0.293,0.076s0.121,0.076,0.152,0.123
			s0.047,0.098,0.047,0.152v2.508h2.707c0.062,0,0.117,0.014,0.164,0.041s0.088,0.074,0.123,0.141s0.061,0.15,0.076,0.252
			s0.023,0.227,0.023,0.375c0,0.281-0.035,0.484-0.105,0.609s-0.164,0.188-0.281,0.188h-2.707v5.883
			c0,0.727,0.107,1.275,0.322,1.646s0.6,0.557,1.154,0.557c0.18,0,0.34-0.018,0.48-0.053s0.266-0.072,0.375-0.111
			s0.203-0.076,0.281-0.111s0.148-0.053,0.211-0.053c0.039,0,0.076,0.01,0.111,0.029s0.062,0.057,0.082,0.111
			s0.037,0.129,0.053,0.223S334.865,242.409,334.865,242.55z"/>
		<path d="M346.419,237.593c0,0.305-0.077,0.521-0.229,0.65c-0.153,0.129-0.328,0.193-0.524,0.193h-6.946
			c0,0.586,0.059,1.113,0.177,1.582c0.118,0.469,0.314,0.871,0.589,1.207c0.274,0.336,0.632,0.594,1.071,0.773
			s0.978,0.27,1.613,0.27c0.502,0,0.95-0.041,1.342-0.123s0.732-0.174,1.019-0.275s0.522-0.193,0.707-0.275s0.324-0.123,0.418-0.123
			c0.055,0,0.104,0.014,0.147,0.041c0.043,0.027,0.077,0.068,0.1,0.123s0.042,0.131,0.053,0.229s0.018,0.217,0.018,0.357
			c0,0.102-0.004,0.189-0.012,0.264s-0.018,0.141-0.029,0.199s-0.031,0.111-0.059,0.158s-0.062,0.092-0.105,0.135
			s-0.17,0.113-0.381,0.211s-0.484,0.193-0.82,0.287s-0.725,0.178-1.166,0.252s-0.912,0.111-1.412,0.111
			c-0.867,0-1.627-0.121-2.279-0.363s-1.201-0.602-1.646-1.078s-0.781-1.074-1.008-1.793s-0.34-1.555-0.34-2.508
			c0-0.906,0.117-1.721,0.352-2.443s0.572-1.336,1.014-1.84s0.975-0.891,1.6-1.16s1.324-0.404,2.098-0.404
			c0.828,0,1.533,0.133,2.115,0.398s1.061,0.623,1.436,1.072s0.65,0.977,0.826,1.582s0.264,1.252,0.264,1.939V237.593z
			 M344.474,237.019c0.023-1.016-0.203-1.812-0.678-2.391c-0.475-0.578-1.181-0.867-2.116-0.867c-0.479,0-0.9,0.09-1.262,0.27
			c-0.361,0.18-0.664,0.418-0.908,0.715s-0.433,0.643-0.566,1.037c-0.134,0.395-0.208,0.807-0.224,1.236H344.474z"/>
		<path d="M365.006,243.323c0,0.062-0.016,0.115-0.047,0.158s-0.082,0.08-0.152,0.111s-0.168,0.055-0.293,0.07
			s-0.281,0.023-0.469,0.023c-0.195,0-0.355-0.008-0.48-0.023s-0.225-0.039-0.299-0.07s-0.127-0.068-0.158-0.111
			s-0.047-0.096-0.047-0.158v-6.41c0-0.445-0.039-0.852-0.117-1.219s-0.203-0.684-0.375-0.949s-0.391-0.469-0.656-0.609
			s-0.578-0.211-0.938-0.211c-0.445,0-0.893,0.172-1.342,0.516s-0.943,0.848-1.482,1.512v7.371c0,0.062-0.016,0.115-0.047,0.158
			s-0.084,0.08-0.158,0.111s-0.174,0.055-0.299,0.07s-0.281,0.023-0.469,0.023c-0.18,0-0.334-0.008-0.463-0.023
			s-0.23-0.039-0.305-0.07s-0.125-0.068-0.152-0.111s-0.041-0.096-0.041-0.158v-6.41c0-0.445-0.043-0.852-0.129-1.219
			s-0.215-0.684-0.387-0.949s-0.389-0.469-0.65-0.609s-0.572-0.211-0.932-0.211c-0.445,0-0.895,0.172-1.348,0.516
			s-0.945,0.848-1.477,1.512v7.371c0,0.062-0.016,0.115-0.047,0.158s-0.082,0.08-0.152,0.111s-0.168,0.055-0.293,0.07
			s-0.285,0.023-0.48,0.023c-0.188,0-0.344-0.008-0.469-0.023s-0.225-0.039-0.299-0.07s-0.125-0.068-0.152-0.111
			s-0.041-0.096-0.041-0.158v-10.547c0-0.062,0.012-0.115,0.035-0.158s0.07-0.082,0.141-0.117s0.16-0.059,0.27-0.07
			s0.254-0.018,0.434-0.018c0.172,0,0.314,0.006,0.428,0.018s0.201,0.035,0.264,0.07s0.107,0.074,0.135,0.117
			s0.041,0.096,0.041,0.158v1.395c0.594-0.664,1.17-1.15,1.729-1.459s1.123-0.463,1.693-0.463c0.438,0,0.83,0.051,1.178,0.152
			s0.654,0.244,0.92,0.428s0.492,0.402,0.68,0.656s0.344,0.537,0.469,0.85c0.352-0.383,0.686-0.707,1.002-0.973
			s0.621-0.48,0.914-0.645s0.578-0.283,0.855-0.357s0.557-0.111,0.838-0.111c0.68,0,1.25,0.119,1.711,0.357s0.834,0.557,1.119,0.955
			s0.488,0.865,0.609,1.4s0.182,1.1,0.182,1.693V243.323z"/>
		<path d="M378.236,237.886c0,0.922-0.1,1.75-0.299,2.484s-0.492,1.357-0.879,1.869s-0.865,0.906-1.436,1.184
			s-1.223,0.416-1.957,0.416c-0.312,0-0.602-0.031-0.867-0.094s-0.525-0.16-0.779-0.293s-0.506-0.301-0.756-0.504
			s-0.516-0.441-0.797-0.715v5.273c0,0.062-0.016,0.117-0.047,0.164s-0.082,0.086-0.152,0.117s-0.168,0.055-0.293,0.07
			s-0.285,0.023-0.48,0.023c-0.188,0-0.344-0.008-0.469-0.023s-0.225-0.039-0.299-0.07s-0.125-0.07-0.152-0.117
			s-0.041-0.102-0.041-0.164v-14.73c0-0.07,0.012-0.127,0.035-0.17s0.07-0.08,0.141-0.111s0.16-0.053,0.27-0.064
			s0.242-0.018,0.398-0.018c0.164,0,0.299,0.006,0.404,0.018s0.193,0.033,0.264,0.064s0.119,0.068,0.146,0.111s0.041,0.1,0.041,0.17
			v1.418c0.32-0.328,0.629-0.613,0.926-0.855s0.596-0.443,0.896-0.604s0.609-0.281,0.926-0.363s0.65-0.123,1.002-0.123
			c0.766,0,1.418,0.148,1.957,0.445s0.979,0.703,1.318,1.219s0.588,1.115,0.744,1.799S378.236,237.12,378.236,237.886z
			 M376.232,238.108c0-0.539-0.042-1.061-0.125-1.564c-0.082-0.504-0.223-0.951-0.424-1.342c-0.2-0.391-0.47-0.703-0.808-0.938
			s-0.759-0.352-1.262-0.352c-0.251,0-0.499,0.037-0.743,0.111c-0.243,0.074-0.49,0.191-0.742,0.352s-0.516,0.371-0.79,0.633
			c-0.275,0.262-0.565,0.584-0.872,0.967v4.195c0.534,0.648,1.041,1.145,1.521,1.488s0.982,0.516,1.509,0.516
			c0.488,0,0.906-0.117,1.256-0.352s0.633-0.547,0.85-0.938c0.216-0.391,0.375-0.828,0.477-1.312
			C376.181,239.089,376.232,238.601,376.232,238.108z"/>
		<path d="M390.143,237.593c0,0.305-0.077,0.521-0.23,0.65c-0.152,0.129-0.327,0.193-0.523,0.193h-6.945
			c0,0.586,0.059,1.113,0.176,1.582c0.118,0.469,0.314,0.871,0.59,1.207c0.273,0.336,0.631,0.594,1.07,0.773s0.979,0.27,1.613,0.27
			c0.503,0,0.95-0.041,1.343-0.123s0.731-0.174,1.019-0.275s0.521-0.193,0.707-0.275c0.184-0.082,0.324-0.123,0.418-0.123
			c0.055,0,0.104,0.014,0.146,0.041c0.044,0.027,0.077,0.068,0.101,0.123s0.042,0.131,0.054,0.229s0.018,0.217,0.018,0.357
			c0,0.102-0.004,0.189-0.012,0.264s-0.018,0.141-0.029,0.199s-0.031,0.111-0.059,0.158s-0.062,0.092-0.105,0.135
			s-0.17,0.113-0.381,0.211s-0.484,0.193-0.82,0.287s-0.725,0.178-1.166,0.252s-0.912,0.111-1.412,0.111
			c-0.867,0-1.627-0.121-2.279-0.363s-1.201-0.602-1.646-1.078s-0.781-1.074-1.008-1.793s-0.34-1.555-0.34-2.508
			c0-0.906,0.117-1.721,0.352-2.443s0.572-1.336,1.014-1.84s0.975-0.891,1.6-1.16s1.324-0.404,2.098-0.404
			c0.828,0,1.533,0.133,2.115,0.398s1.061,0.623,1.436,1.072s0.65,0.977,0.826,1.582s0.264,1.252,0.264,1.939V237.593z
			 M388.197,237.019c0.023-1.016-0.203-1.812-0.679-2.391s-1.181-0.867-2.116-0.867c-0.479,0-0.9,0.09-1.262,0.27
			s-0.664,0.418-0.908,0.715c-0.243,0.297-0.432,0.643-0.565,1.037s-0.208,0.807-0.224,1.236H388.197z"/>
		<path d="M399.248,233.468c0,0.172-0.004,0.316-0.012,0.434s-0.023,0.209-0.047,0.275s-0.053,0.117-0.088,0.152
			s-0.084,0.053-0.146,0.053s-0.139-0.018-0.229-0.053s-0.191-0.07-0.305-0.105s-0.24-0.068-0.381-0.1s-0.293-0.047-0.457-0.047
			c-0.195,0-0.387,0.039-0.574,0.117s-0.385,0.207-0.592,0.387s-0.424,0.418-0.65,0.715s-0.477,0.66-0.75,1.09v6.938
			c0,0.062-0.016,0.115-0.047,0.158s-0.082,0.08-0.152,0.111s-0.168,0.055-0.293,0.07s-0.285,0.023-0.48,0.023
			c-0.188,0-0.344-0.008-0.469-0.023s-0.225-0.039-0.299-0.07s-0.125-0.068-0.152-0.111s-0.041-0.096-0.041-0.158v-10.547
			c0-0.062,0.012-0.115,0.035-0.158s0.07-0.082,0.141-0.117s0.16-0.059,0.27-0.07s0.254-0.018,0.434-0.018
			c0.172,0,0.314,0.006,0.428,0.018s0.201,0.035,0.264,0.07s0.107,0.074,0.135,0.117s0.041,0.096,0.041,0.158v1.535
			c0.289-0.422,0.561-0.766,0.814-1.031s0.494-0.475,0.721-0.627s0.451-0.258,0.674-0.316s0.447-0.088,0.674-0.088
			c0.102,0,0.217,0.006,0.346,0.018s0.264,0.033,0.404,0.064s0.268,0.066,0.381,0.105s0.193,0.078,0.24,0.117
			s0.078,0.076,0.094,0.111s0.029,0.08,0.041,0.135s0.02,0.135,0.023,0.24S399.248,233.288,399.248,233.468z"/>
		<path d="M409.396,243.335c0,0.094-0.031,0.164-0.094,0.211s-0.148,0.082-0.258,0.105s-0.27,0.035-0.48,0.035
			c-0.203,0-0.365-0.012-0.486-0.035s-0.209-0.059-0.264-0.105s-0.082-0.117-0.082-0.211v-1.055
			c-0.461,0.492-0.975,0.875-1.541,1.148s-1.166,0.41-1.799,0.41c-0.555,0-1.057-0.072-1.506-0.217s-0.832-0.354-1.148-0.627
			s-0.562-0.609-0.738-1.008s-0.264-0.852-0.264-1.359c0-0.594,0.121-1.109,0.363-1.547s0.59-0.801,1.043-1.09
			s1.008-0.506,1.664-0.65s1.395-0.217,2.215-0.217h1.453v-0.82c0-0.406-0.043-0.766-0.129-1.078s-0.225-0.572-0.416-0.779
			s-0.439-0.363-0.744-0.469s-0.68-0.158-1.125-0.158c-0.477,0-0.904,0.057-1.283,0.17s-0.711,0.238-0.996,0.375
			s-0.523,0.262-0.715,0.375s-0.334,0.17-0.428,0.17c-0.062,0-0.117-0.016-0.164-0.047s-0.088-0.078-0.123-0.141
			s-0.061-0.143-0.076-0.24s-0.023-0.205-0.023-0.322c0-0.195,0.014-0.35,0.041-0.463s0.094-0.221,0.199-0.322
			s0.287-0.221,0.545-0.357s0.555-0.262,0.891-0.375s0.703-0.207,1.102-0.281s0.801-0.111,1.207-0.111
			c0.758,0,1.402,0.086,1.934,0.258s0.961,0.424,1.289,0.756s0.566,0.744,0.715,1.236s0.223,1.066,0.223,1.723V243.335z
			 M407.475,238.519h-1.652c-0.531,0-0.992,0.045-1.383,0.135s-0.715,0.223-0.973,0.398s-0.447,0.387-0.568,0.633
			s-0.182,0.529-0.182,0.85c0,0.547,0.174,0.982,0.521,1.307s0.834,0.486,1.459,0.486c0.508,0,0.979-0.129,1.412-0.387
			s0.889-0.652,1.365-1.184V238.519z"/>
		<path d="M428.592,243.323c0,0.062-0.016,0.115-0.047,0.158s-0.082,0.08-0.152,0.111s-0.168,0.055-0.293,0.07
			s-0.281,0.023-0.469,0.023c-0.195,0-0.355-0.008-0.48-0.023s-0.225-0.039-0.299-0.07s-0.127-0.068-0.158-0.111
			s-0.047-0.096-0.047-0.158v-6.41c0-0.445-0.039-0.852-0.117-1.219s-0.203-0.684-0.375-0.949s-0.391-0.469-0.656-0.609
			s-0.578-0.211-0.938-0.211c-0.445,0-0.893,0.172-1.342,0.516s-0.943,0.848-1.482,1.512v7.371c0,0.062-0.016,0.115-0.047,0.158
			s-0.084,0.08-0.158,0.111s-0.174,0.055-0.299,0.07s-0.281,0.023-0.469,0.023c-0.18,0-0.334-0.008-0.463-0.023
			s-0.23-0.039-0.305-0.07s-0.125-0.068-0.152-0.111s-0.041-0.096-0.041-0.158v-6.41c0-0.445-0.043-0.852-0.129-1.219
			s-0.215-0.684-0.387-0.949s-0.389-0.469-0.65-0.609s-0.572-0.211-0.932-0.211c-0.445,0-0.895,0.172-1.348,0.516
			s-0.945,0.848-1.477,1.512v7.371c0,0.062-0.016,0.115-0.047,0.158s-0.082,0.08-0.152,0.111s-0.168,0.055-0.293,0.07
			s-0.285,0.023-0.48,0.023c-0.188,0-0.344-0.008-0.469-0.023s-0.225-0.039-0.299-0.07s-0.125-0.068-0.152-0.111
			s-0.041-0.096-0.041-0.158v-10.547c0-0.062,0.012-0.115,0.035-0.158s0.07-0.082,0.141-0.117s0.16-0.059,0.27-0.07
			s0.254-0.018,0.434-0.018c0.172,0,0.314,0.006,0.428,0.018s0.201,0.035,0.264,0.07s0.107,0.074,0.135,0.117
			s0.041,0.096,0.041,0.158v1.395c0.594-0.664,1.17-1.15,1.729-1.459s1.123-0.463,1.693-0.463c0.438,0,0.83,0.051,1.178,0.152
			s0.654,0.244,0.92,0.428s0.492,0.402,0.68,0.656s0.344,0.537,0.469,0.85c0.352-0.383,0.686-0.707,1.002-0.973
			s0.621-0.48,0.914-0.645s0.578-0.283,0.855-0.357s0.557-0.111,0.838-0.111c0.68,0,1.25,0.119,1.711,0.357s0.834,0.557,1.119,0.955
			s0.488,0.865,0.609,1.4s0.182,1.1,0.182,1.693V243.323z"/>
		<path d="M441.119,237.593c0,0.305-0.077,0.521-0.23,0.65c-0.152,0.129-0.327,0.193-0.523,0.193h-6.945
			c0,0.586,0.059,1.113,0.176,1.582c0.118,0.469,0.314,0.871,0.59,1.207c0.273,0.336,0.631,0.594,1.07,0.773s0.979,0.27,1.613,0.27
			c0.503,0,0.95-0.041,1.343-0.123s0.731-0.174,1.019-0.275s0.521-0.193,0.707-0.275c0.184-0.082,0.324-0.123,0.418-0.123
			c0.055,0,0.104,0.014,0.146,0.041c0.044,0.027,0.077,0.068,0.101,0.123s0.042,0.131,0.054,0.229s0.018,0.217,0.018,0.357
			c0,0.102-0.004,0.189-0.012,0.264s-0.018,0.141-0.029,0.199s-0.031,0.111-0.059,0.158s-0.062,0.092-0.105,0.135
			s-0.17,0.113-0.381,0.211s-0.484,0.193-0.82,0.287s-0.725,0.178-1.166,0.252s-0.912,0.111-1.412,0.111
			c-0.867,0-1.627-0.121-2.279-0.363s-1.201-0.602-1.646-1.078s-0.781-1.074-1.008-1.793s-0.34-1.555-0.34-2.508
			c0-0.906,0.117-1.721,0.352-2.443s0.572-1.336,1.014-1.84s0.975-0.891,1.6-1.16s1.324-0.404,2.098-0.404
			c0.828,0,1.533,0.133,2.115,0.398s1.061,0.623,1.436,1.072s0.65,0.977,0.826,1.582s0.264,1.252,0.264,1.939V237.593z
			 M439.174,237.019c0.023-1.016-0.203-1.812-0.679-2.391s-1.181-0.867-2.116-0.867c-0.479,0-0.9,0.09-1.262,0.27
			s-0.664,0.418-0.908,0.715c-0.243,0.297-0.432,0.643-0.565,1.037s-0.208,0.807-0.224,1.236H439.174z"/>
		<path d="M453.143,243.323c0,0.062-0.016,0.115-0.047,0.158s-0.082,0.08-0.152,0.111s-0.168,0.055-0.293,0.07
			s-0.281,0.023-0.469,0.023c-0.195,0-0.355-0.008-0.48-0.023s-0.223-0.039-0.293-0.07s-0.121-0.068-0.152-0.111
			s-0.047-0.096-0.047-0.158v-6.176c0-0.602-0.047-1.086-0.141-1.453s-0.23-0.684-0.41-0.949s-0.412-0.469-0.697-0.609
			s-0.615-0.211-0.99-0.211c-0.484,0-0.969,0.172-1.453,0.516s-0.992,0.848-1.523,1.512v7.371c0,0.062-0.016,0.115-0.047,0.158
			s-0.082,0.08-0.152,0.111s-0.168,0.055-0.293,0.07s-0.285,0.023-0.48,0.023c-0.188,0-0.344-0.008-0.469-0.023
			s-0.225-0.039-0.299-0.07s-0.125-0.068-0.152-0.111s-0.041-0.096-0.041-0.158v-10.547c0-0.062,0.012-0.115,0.035-0.158
			s0.07-0.082,0.141-0.117s0.16-0.059,0.27-0.07s0.254-0.018,0.434-0.018c0.172,0,0.314,0.006,0.428,0.018s0.201,0.035,0.264,0.07
			s0.107,0.074,0.135,0.117s0.041,0.096,0.041,0.158v1.395c0.594-0.664,1.186-1.15,1.775-1.459s1.186-0.463,1.787-0.463
			c0.703,0,1.295,0.119,1.775,0.357s0.869,0.557,1.166,0.955s0.51,0.865,0.639,1.4s0.193,1.178,0.193,1.928V243.323z"/>
		<path d="M462.154,242.55c0,0.227-0.016,0.406-0.047,0.539s-0.078,0.23-0.141,0.293s-0.156,0.121-0.281,0.176
			s-0.268,0.1-0.428,0.135s-0.33,0.064-0.51,0.088s-0.359,0.035-0.539,0.035c-0.547,0-1.016-0.072-1.406-0.217
			s-0.711-0.363-0.961-0.656s-0.432-0.664-0.545-1.113s-0.17-0.979-0.17-1.588v-6.164h-1.477c-0.117,0-0.211-0.062-0.281-0.188
			s-0.105-0.328-0.105-0.609c0-0.148,0.01-0.273,0.029-0.375s0.045-0.186,0.076-0.252s0.072-0.113,0.123-0.141
			s0.107-0.041,0.17-0.041h1.465v-2.508c0-0.055,0.014-0.105,0.041-0.152s0.078-0.088,0.152-0.123s0.174-0.061,0.299-0.076
			s0.281-0.023,0.469-0.023c0.195,0,0.355,0.008,0.48,0.023s0.223,0.041,0.293,0.076s0.121,0.076,0.152,0.123
			s0.047,0.098,0.047,0.152v2.508h2.707c0.062,0,0.117,0.014,0.164,0.041s0.088,0.074,0.123,0.141s0.061,0.15,0.076,0.252
			s0.023,0.227,0.023,0.375c0,0.281-0.035,0.484-0.105,0.609s-0.164,0.188-0.281,0.188h-2.707v5.883
			c0,0.727,0.107,1.275,0.322,1.646s0.6,0.557,1.154,0.557c0.18,0,0.34-0.018,0.48-0.053s0.266-0.072,0.375-0.111
			s0.203-0.076,0.281-0.111s0.148-0.053,0.211-0.053c0.039,0,0.076,0.01,0.111,0.029s0.062,0.057,0.082,0.111
			s0.037,0.129,0.053,0.223S462.154,242.409,462.154,242.55z"/>
	</g>

		<path clip-path="url(#SVGID_2_)" fill="none" stroke="#AA5B02" stroke-width="2" stroke-linejoin="round" stroke-miterlimit="10" d="
		M102.759,59.052"/>

		<path clip-path="url(#SVGID_2_)" fill="none" stroke="#AA5B02" stroke-width="2" stroke-linejoin="round" stroke-miterlimit="10" d="
		M150.791,59.052"/>

		<path clip-path="url(#SVGID_2_)" fill="none" stroke="#AA5B02" stroke-width="2" stroke-linejoin="round" stroke-miterlimit="10" d="
		M198.823,59.052"/>

		<path clip-path="url(#SVGID_2_)" fill="none" stroke="#AA5B02" stroke-width="2" stroke-linejoin="round" stroke-miterlimit="10" d="
		M246.855,59.052"/>

		<path clip-path="url(#SVGID_2_)" fill="none" stroke="#AA5B02" stroke-width="2" stroke-linejoin="round" stroke-miterlimit="10" d="
		M294.888,59.052"/>

		<path clip-path="url(#SVGID_2_)" fill="none" stroke="#AA5B02" stroke-width="2" stroke-linejoin="round" stroke-miterlimit="10" d="
		M342.92,59.052"/>

		<path clip-path="url(#SVGID_2_)" fill="none" stroke="#AA5B02" stroke-width="2" stroke-linejoin="round" stroke-miterlimit="10" d="
		M390.953,59.052"/>

		<path clip-path="url(#SVGID_2_)" fill="none" stroke="#AA5B02" stroke-width="2" stroke-linejoin="round" stroke-miterlimit="10" d="
		M438.985,59.052"/>

		<path clip-path="url(#SVGID_2_)" fill="none" stroke="#AA5B02" stroke-width="2" stroke-linejoin="round" stroke-miterlimit="10" d="
		M487.018,59.052"/>

		<path clip-path="url(#SVGID_2_)" fill="none" stroke="#AA5B02" stroke-width="2" stroke-linejoin="round" stroke-miterlimit="10" d="
		M535.05,59.052"/>

		<path clip-path="url(#SVGID_2_)" fill="none" stroke="#AA5B02" stroke-width="2" stroke-linejoin="round" stroke-miterlimit="10" d="
		M583.082,59.052"/>

		<path clip-path="url(#SVGID_2_)" fill="none" stroke="#305274" stroke-width="2" stroke-linejoin="round" stroke-miterlimit="10" d="
		M103.835,182.456"/>

		<path clip-path="url(#SVGID_2_)" fill="none" stroke="#305274" stroke-width="2" stroke-linejoin="round" stroke-miterlimit="10" d="
		M163.073,182.456"/>

		<path clip-path="url(#SVGID_2_)" fill="none" stroke="#305274" stroke-width="2" stroke-linejoin="round" stroke-miterlimit="10" d="
		M193.865,182.456"/>

		<path clip-path="url(#SVGID_2_)" fill="none" stroke="#305274" stroke-width="2" stroke-linejoin="round" stroke-miterlimit="10" d="
		M274.778,181.175"/>

		<path clip-path="url(#SVGID_2_)" fill="none" stroke="#305274" stroke-width="2" stroke-linejoin="round" stroke-miterlimit="10" d="
		M305.542,182.456"/>

		<path clip-path="url(#SVGID_2_)" fill="none" stroke="#305274" stroke-width="2" stroke-linejoin="round" stroke-miterlimit="10" d="
		M343.997,182.456"/>

		<path clip-path="url(#SVGID_2_)" fill="none" stroke="#305274" stroke-width="2" stroke-linejoin="round" stroke-miterlimit="10" d="
		M380.823,182.456"/>

		<path clip-path="url(#SVGID_2_)" fill="none" stroke="#305274" stroke-width="2" stroke-linejoin="round" stroke-miterlimit="10" d="
		M428.948,182.456"/>

		<path clip-path="url(#SVGID_2_)" fill="none" stroke="#305274" stroke-width="2" stroke-linejoin="round" stroke-miterlimit="10" d="
		M473.311,182.456"/>

		<path clip-path="url(#SVGID_2_)" fill="none" stroke="#305274" stroke-width="2" stroke-linejoin="round" stroke-miterlimit="10" d="
		M532.678,182.456"/>

		<path clip-path="url(#SVGID_2_)" fill="none" stroke="#305274" stroke-width="2" stroke-linejoin="round" stroke-miterlimit="10" d="
		M584.158,182.456"/>
	<g clip-path="url(#SVGID_2_)">
		<path d="M102.185,57.244c0,0.124-0.01,0.228-0.029,0.312s-0.045,0.153-0.078,0.205s-0.07,0.09-0.112,0.112
			s-0.086,0.034-0.132,0.034h-6.602c-0.045,0-0.088-0.012-0.127-0.034s-0.077-0.061-0.112-0.112s-0.063-0.12-0.083-0.205
			s-0.029-0.188-0.029-0.312c0-0.117,0.01-0.218,0.029-0.303s0.044-0.154,0.073-0.21s0.065-0.098,0.107-0.127
			s0.089-0.044,0.142-0.044h2.637v-9.609l-2.441,1.455c-0.124,0.065-0.223,0.104-0.298,0.117s-0.135-0.002-0.181-0.044
			s-0.077-0.112-0.093-0.21s-0.024-0.222-0.024-0.371c0-0.11,0.005-0.205,0.015-0.283s0.024-0.144,0.044-0.195
			s0.047-0.098,0.083-0.137s0.083-0.078,0.142-0.117l2.91-1.865c0.026-0.02,0.059-0.036,0.098-0.049s0.088-0.026,0.146-0.039
			s0.127-0.021,0.205-0.024s0.176-0.005,0.293-0.005c0.156,0,0.287,0.007,0.391,0.02s0.186,0.031,0.244,0.054
			s0.098,0.052,0.117,0.088s0.029,0.073,0.029,0.112v11.104h2.285c0.052,0,0.101,0.015,0.146,0.044s0.083,0.071,0.112,0.127
			s0.052,0.125,0.068,0.21S102.185,57.127,102.185,57.244z"/>
		<path d="M106.843,56.844c0,0.462-0.077,0.77-0.229,0.923s-0.431,0.229-0.835,0.229c-0.391,0-0.661-0.075-0.811-0.225
			s-0.225-0.449-0.225-0.898c0-0.462,0.077-0.77,0.229-0.923s0.431-0.229,0.835-0.229c0.391,0,0.661,0.075,0.811,0.225
			S106.843,56.395,106.843,56.844z"/>
		<path d="M117.761,51.561c0,0.97-0.077,1.855-0.229,2.656s-0.407,1.489-0.762,2.065s-0.819,1.022-1.392,1.338
			s-1.279,0.474-2.119,0.474c-0.794,0-1.463-0.142-2.007-0.425s-0.981-0.7-1.313-1.25s-0.568-1.228-0.708-2.031
			s-0.21-1.727-0.21-2.769c0-0.964,0.078-1.848,0.234-2.651s0.41-1.494,0.762-2.07s0.814-1.022,1.387-1.338s1.276-0.474,2.109-0.474
			c0.801,0,1.473,0.142,2.017,0.425s0.981,0.7,1.313,1.25s0.568,1.228,0.708,2.031S117.761,50.519,117.761,51.561z M116.042,51.678
			c0-0.632-0.023-1.198-0.068-1.699s-0.112-0.944-0.2-1.328s-0.202-0.715-0.342-0.991s-0.308-0.505-0.503-0.684
			s-0.418-0.31-0.669-0.391s-0.532-0.122-0.845-0.122c-0.553,0-1.002,0.13-1.348,0.391s-0.617,0.618-0.815,1.074
			s-0.333,0.989-0.405,1.602s-0.107,1.27-0.107,1.973c0,0.944,0.049,1.746,0.146,2.407s0.252,1.199,0.464,1.616
			s0.482,0.72,0.811,0.908s0.728,0.283,1.196,0.283c0.365,0,0.685-0.059,0.962-0.176s0.514-0.285,0.713-0.503
			s0.363-0.48,0.493-0.786s0.234-0.645,0.312-1.016s0.132-0.773,0.161-1.206S116.042,52.146,116.042,51.678z"/>
	</g>
	<g clip-path="url(#SVGID_2_)">
		<path d="M147.153,57.244c0,0.124-0.01,0.228-0.029,0.312s-0.045,0.153-0.078,0.205s-0.07,0.09-0.112,0.112
			s-0.086,0.034-0.132,0.034H140.2c-0.045,0-0.088-0.012-0.127-0.034s-0.077-0.061-0.112-0.112s-0.063-0.12-0.083-0.205
			s-0.029-0.188-0.029-0.312c0-0.117,0.01-0.218,0.029-0.303s0.044-0.154,0.073-0.21s0.065-0.098,0.107-0.127
			s0.089-0.044,0.142-0.044h2.637v-9.609l-2.441,1.455c-0.124,0.065-0.223,0.104-0.298,0.117s-0.135-0.002-0.181-0.044
			s-0.077-0.112-0.093-0.21s-0.024-0.222-0.024-0.371c0-0.11,0.005-0.205,0.015-0.283s0.024-0.144,0.044-0.195
			s0.047-0.098,0.083-0.137s0.083-0.078,0.142-0.117l2.91-1.865c0.026-0.02,0.059-0.036,0.098-0.049s0.088-0.026,0.146-0.039
			s0.127-0.021,0.205-0.024s0.176-0.005,0.293-0.005c0.156,0,0.287,0.007,0.391,0.02s0.186,0.031,0.244,0.054
			s0.098,0.052,0.117,0.088s0.029,0.073,0.029,0.112v11.104h2.285c0.052,0,0.101,0.015,0.146,0.044s0.083,0.071,0.112,0.127
			s0.052,0.125,0.068,0.21S147.153,57.127,147.153,57.244z"/>
		<path d="M151.812,56.844c0,0.462-0.077,0.77-0.229,0.923s-0.431,0.229-0.835,0.229c-0.391,0-0.661-0.075-0.811-0.225
			s-0.225-0.449-0.225-0.898c0-0.462,0.077-0.77,0.229-0.923s0.431-0.229,0.835-0.229c0.391,0,0.661,0.075,0.811,0.225
			S151.812,56.395,151.812,56.844z"/>
		<path d="M162.339,57.244c0,0.124-0.01,0.228-0.029,0.312s-0.045,0.153-0.078,0.205s-0.07,0.09-0.112,0.112
			s-0.086,0.034-0.132,0.034h-6.602c-0.045,0-0.088-0.012-0.127-0.034s-0.077-0.061-0.112-0.112s-0.063-0.12-0.083-0.205
			s-0.029-0.188-0.029-0.312c0-0.117,0.01-0.218,0.029-0.303s0.044-0.154,0.073-0.21s0.065-0.098,0.107-0.127
			s0.089-0.044,0.142-0.044h2.637v-9.609l-2.441,1.455c-0.124,0.065-0.223,0.104-0.298,0.117s-0.135-0.002-0.181-0.044
			s-0.077-0.112-0.093-0.21s-0.024-0.222-0.024-0.371c0-0.11,0.005-0.205,0.015-0.283s0.024-0.144,0.044-0.195
			s0.047-0.098,0.083-0.137s0.083-0.078,0.142-0.117l2.91-1.865c0.026-0.02,0.059-0.036,0.098-0.049s0.088-0.026,0.146-0.039
			s0.127-0.021,0.205-0.024s0.176-0.005,0.293-0.005c0.156,0,0.287,0.007,0.391,0.02s0.186,0.031,0.244,0.054
			s0.098,0.052,0.117,0.088s0.029,0.073,0.029,0.112v11.104h2.285c0.052,0,0.101,0.015,0.146,0.044s0.083,0.071,0.112,0.127
			s0.052,0.125,0.068,0.21S162.339,57.127,162.339,57.244z"/>
	</g>
	<g clip-path="url(#SVGID_2_)">
		<path d="M194.606,57.244c0,0.124-0.01,0.228-0.029,0.312s-0.045,0.153-0.078,0.205s-0.07,0.09-0.112,0.112
			s-0.086,0.034-0.132,0.034h-6.602c-0.045,0-0.088-0.012-0.127-0.034s-0.077-0.061-0.112-0.112s-0.063-0.12-0.083-0.205
			s-0.029-0.188-0.029-0.312c0-0.117,0.01-0.218,0.029-0.303s0.044-0.154,0.073-0.21s0.065-0.098,0.107-0.127
			s0.089-0.044,0.142-0.044h2.637v-9.609l-2.441,1.455c-0.124,0.065-0.223,0.104-0.298,0.117s-0.135-0.002-0.181-0.044
			s-0.077-0.112-0.093-0.21s-0.024-0.222-0.024-0.371c0-0.11,0.005-0.205,0.015-0.283s0.024-0.144,0.044-0.195
			s0.047-0.098,0.083-0.137s0.083-0.078,0.142-0.117l2.91-1.865c0.026-0.02,0.059-0.036,0.098-0.049s0.088-0.026,0.146-0.039
			s0.127-0.021,0.205-0.024s0.176-0.005,0.293-0.005c0.156,0,0.287,0.007,0.391,0.02s0.186,0.031,0.244,0.054
			s0.098,0.052,0.117,0.088s0.029,0.073,0.029,0.112v11.104h2.285c0.052,0,0.101,0.015,0.146,0.044s0.083,0.071,0.112,0.127
			s0.052,0.125,0.068,0.21S194.606,57.127,194.606,57.244z"/>
		<path d="M199.265,56.844c0,0.462-0.077,0.77-0.229,0.923s-0.431,0.229-0.835,0.229c-0.391,0-0.661-0.075-0.811-0.225
			s-0.225-0.449-0.225-0.898c0-0.462,0.077-0.77,0.229-0.923s0.431-0.229,0.835-0.229c0.391,0,0.661,0.075,0.811,0.225
			S199.265,56.395,199.265,56.844z"/>
		<path d="M209.763,57.186c0,0.117-0.008,0.222-0.024,0.312s-0.039,0.168-0.068,0.229s-0.068,0.107-0.117,0.137
			s-0.103,0.044-0.161,0.044h-6.982c-0.091,0-0.171-0.012-0.239-0.034s-0.127-0.061-0.176-0.112s-0.084-0.127-0.107-0.225
			s-0.034-0.218-0.034-0.361c0-0.13,0.005-0.244,0.015-0.342s0.032-0.184,0.065-0.259c0.033-0.075,0.075-0.149,0.125-0.225
			c0.051-0.075,0.116-0.154,0.196-0.239l2.526-2.598c0.583-0.599,1.052-1.136,1.404-1.611s0.624-0.908,0.815-1.299
			c0.191-0.391,0.317-0.745,0.377-1.064c0.061-0.319,0.091-0.618,0.091-0.898s-0.047-0.545-0.141-0.796
			c-0.094-0.251-0.23-0.471-0.408-0.659c-0.178-0.188-0.401-0.339-0.67-0.449c-0.269-0.11-0.578-0.166-0.927-0.166
			c-0.41,0-0.777,0.056-1.103,0.166c-0.326,0.11-0.612,0.231-0.857,0.361s-0.45,0.251-0.614,0.361
			c-0.165,0.11-0.288,0.166-0.368,0.166c-0.047,0-0.089-0.013-0.126-0.039c-0.037-0.026-0.067-0.068-0.09-0.127
			s-0.042-0.137-0.056-0.234c-0.013-0.098-0.02-0.215-0.02-0.352c0-0.098,0.003-0.183,0.01-0.254s0.018-0.134,0.034-0.186
			s0.038-0.101,0.063-0.146s0.078-0.103,0.156-0.171s0.213-0.161,0.405-0.278s0.433-0.232,0.723-0.347s0.609-0.21,0.957-0.288
			s0.714-0.117,1.099-0.117c0.612,0,1.147,0.086,1.606,0.259s0.84,0.408,1.143,0.708s0.529,0.647,0.679,1.045s0.225,0.82,0.225,1.27
			c0,0.403-0.036,0.806-0.107,1.206s-0.223,0.833-0.454,1.299s-0.565,0.983-1.001,1.553s-1.016,1.226-1.738,1.968l-2.002,2.09h5.498
			c0.052,0,0.103,0.015,0.151,0.044s0.091,0.073,0.127,0.132s0.062,0.132,0.078,0.22S209.763,57.068,209.763,57.186z"/>
	</g>
	<g clip-path="url(#SVGID_2_)">
		<path d="M243.053,57.244c0,0.124-0.01,0.228-0.029,0.312s-0.045,0.153-0.078,0.205s-0.07,0.09-0.112,0.112
			s-0.086,0.034-0.132,0.034H236.1c-0.045,0-0.088-0.012-0.127-0.034s-0.077-0.061-0.112-0.112s-0.063-0.12-0.083-0.205
			s-0.029-0.188-0.029-0.312c0-0.117,0.01-0.218,0.029-0.303s0.044-0.154,0.073-0.21s0.065-0.098,0.107-0.127
			s0.089-0.044,0.142-0.044h2.637v-9.609l-2.441,1.455c-0.124,0.065-0.223,0.104-0.298,0.117s-0.135-0.002-0.181-0.044
			s-0.077-0.112-0.093-0.21s-0.024-0.222-0.024-0.371c0-0.11,0.005-0.205,0.015-0.283s0.024-0.144,0.044-0.195
			s0.047-0.098,0.083-0.137s0.083-0.078,0.142-0.117l2.91-1.865c0.026-0.02,0.059-0.036,0.098-0.049s0.088-0.026,0.146-0.039
			s0.127-0.021,0.205-0.024s0.176-0.005,0.293-0.005c0.156,0,0.287,0.007,0.391,0.02s0.186,0.031,0.244,0.054
			s0.098,0.052,0.117,0.088s0.029,0.073,0.029,0.112v11.104h2.285c0.052,0,0.101,0.015,0.146,0.044s0.083,0.071,0.112,0.127
			s0.052,0.125,0.068,0.21S243.053,57.127,243.053,57.244z"/>
		<path d="M247.711,56.844c0,0.462-0.077,0.77-0.229,0.923s-0.431,0.229-0.835,0.229c-0.391,0-0.661-0.075-0.811-0.225
			s-0.225-0.449-0.225-0.898c0-0.462,0.077-0.77,0.229-0.923s0.431-0.229,0.835-0.229c0.391,0,0.661,0.075,0.811,0.225
			S247.711,56.395,247.711,56.844z"/>
		<path d="M258.112,54.295c0,0.579-0.101,1.102-0.303,1.567s-0.492,0.864-0.869,1.196s-0.843,0.588-1.396,0.767
			s-1.178,0.269-1.875,0.269c-0.423,0-0.819-0.034-1.187-0.103s-0.695-0.149-0.981-0.244s-0.524-0.192-0.713-0.293
			s-0.308-0.174-0.356-0.22s-0.086-0.091-0.112-0.137s-0.049-0.101-0.068-0.166s-0.034-0.145-0.044-0.239s-0.015-0.21-0.015-0.347
			c0-0.234,0.023-0.397,0.07-0.488c0.047-0.091,0.114-0.137,0.201-0.137c0.06,0,0.179,0.052,0.355,0.156
			c0.177,0.104,0.404,0.217,0.682,0.337c0.277,0.12,0.601,0.232,0.972,0.337c0.371,0.104,0.783,0.156,1.237,0.156
			c0.44,0,0.828-0.056,1.162-0.166c0.334-0.11,0.615-0.267,0.842-0.469s0.397-0.441,0.511-0.718c0.114-0.276,0.17-0.578,0.17-0.903
			c0-0.358-0.072-0.681-0.217-0.967s-0.356-0.534-0.635-0.742c-0.279-0.208-0.622-0.368-1.029-0.479s-0.869-0.166-1.387-0.166
			h-1.241c-0.054,0-0.106-0.012-0.156-0.034c-0.051-0.022-0.094-0.061-0.131-0.112s-0.067-0.12-0.091-0.205
			s-0.035-0.195-0.035-0.332c0-0.124,0.01-0.227,0.029-0.308s0.047-0.146,0.083-0.195s0.077-0.085,0.122-0.107
			s0.098-0.034,0.156-0.034h1.104c0.43,0,0.815-0.056,1.157-0.166s0.631-0.271,0.869-0.479s0.42-0.457,0.547-0.747
			s0.19-0.613,0.19-0.972c0-0.261-0.042-0.51-0.127-0.747s-0.211-0.444-0.381-0.62s-0.386-0.314-0.649-0.415
			s-0.568-0.151-0.913-0.151c-0.377,0-0.724,0.057-1.04,0.171s-0.597,0.236-0.845,0.366s-0.453,0.252-0.615,0.366
			s-0.277,0.171-0.342,0.171c-0.045,0-0.086-0.008-0.122-0.024s-0.065-0.049-0.088-0.098s-0.039-0.117-0.049-0.205
			s-0.015-0.203-0.015-0.347c0-0.098,0.003-0.184,0.01-0.259s0.02-0.14,0.039-0.195s0.042-0.105,0.068-0.151s0.07-0.1,0.132-0.161
			s0.187-0.151,0.376-0.269s0.421-0.232,0.698-0.347s0.596-0.21,0.957-0.288s0.75-0.117,1.167-0.117c0.586,0,1.1,0.075,1.543,0.225
			s0.812,0.361,1.108,0.635s0.518,0.601,0.664,0.981s0.22,0.803,0.22,1.265c0,0.397-0.052,0.767-0.156,1.108
			s-0.257,0.645-0.459,0.908s-0.449,0.488-0.742,0.674s-0.631,0.314-1.016,0.386v0.02c0.436,0.046,0.835,0.154,1.196,0.327
			s0.672,0.389,0.933,0.649s0.464,0.564,0.61,0.913S258.112,53.897,258.112,54.295z"/>
	</g>
	<g clip-path="url(#SVGID_2_)">
		<path d="M291.085,57.244c0,0.124-0.01,0.228-0.029,0.312s-0.045,0.153-0.078,0.205s-0.07,0.09-0.112,0.112
			s-0.086,0.034-0.132,0.034h-6.602c-0.045,0-0.088-0.012-0.127-0.034s-0.077-0.061-0.112-0.112s-0.063-0.12-0.083-0.205
			s-0.029-0.188-0.029-0.312c0-0.117,0.01-0.218,0.029-0.303s0.044-0.154,0.073-0.21s0.065-0.098,0.107-0.127
			s0.089-0.044,0.142-0.044h2.637v-9.609l-2.441,1.455c-0.124,0.065-0.223,0.104-0.298,0.117s-0.135-0.002-0.181-0.044
			s-0.077-0.112-0.093-0.21s-0.024-0.222-0.024-0.371c0-0.11,0.005-0.205,0.015-0.283s0.024-0.144,0.044-0.195
			s0.047-0.098,0.083-0.137s0.083-0.078,0.142-0.117l2.91-1.865c0.026-0.02,0.059-0.036,0.098-0.049s0.088-0.026,0.146-0.039
			s0.127-0.021,0.205-0.024s0.176-0.005,0.293-0.005c0.156,0,0.287,0.007,0.391,0.02s0.186,0.031,0.244,0.054
			s0.098,0.052,0.117,0.088s0.029,0.073,0.029,0.112v11.104h2.285c0.052,0,0.101,0.015,0.146,0.044s0.083,0.071,0.112,0.127
			s0.052,0.125,0.068,0.21S291.085,57.127,291.085,57.244z"/>
		<path d="M295.744,56.844c0,0.462-0.077,0.77-0.229,0.923s-0.431,0.229-0.835,0.229c-0.391,0-0.661-0.075-0.811-0.225
			s-0.225-0.449-0.225-0.898c0-0.462,0.077-0.77,0.229-0.923s0.431-0.229,0.835-0.229c0.391,0,0.661,0.075,0.811,0.225
			S295.744,56.395,295.744,56.844z"/>
		<path d="M306.779,54.314c0,0.215-0.033,0.384-0.098,0.508s-0.156,0.186-0.273,0.186h-1.426v2.656c0,0.052-0.014,0.096-0.04,0.132
			c-0.027,0.036-0.074,0.066-0.141,0.093c-0.067,0.026-0.154,0.046-0.262,0.059c-0.107,0.013-0.245,0.02-0.412,0.02
			c-0.161,0-0.295-0.007-0.402-0.02s-0.193-0.032-0.256-0.059c-0.064-0.026-0.107-0.057-0.131-0.093s-0.035-0.08-0.035-0.132v-2.656
			h-5.17c-0.078,0-0.142-0.01-0.194-0.029c-0.051-0.02-0.098-0.056-0.14-0.107s-0.071-0.127-0.087-0.225s-0.024-0.225-0.024-0.381
			c0-0.124,0.003-0.234,0.01-0.332s0.019-0.188,0.039-0.269c0.019-0.081,0.045-0.159,0.077-0.234s0.071-0.154,0.116-0.239
			l4.504-7.676c0.033-0.052,0.081-0.098,0.145-0.137c0.063-0.039,0.144-0.071,0.244-0.098s0.223-0.044,0.369-0.054
			s0.318-0.015,0.518-0.015c0.219,0,0.41,0.008,0.572,0.024c0.163,0.017,0.294,0.037,0.394,0.063s0.176,0.061,0.229,0.103
			s0.08,0.093,0.08,0.151v8.066h1.426c0.111,0,0.2,0.057,0.269,0.171S306.779,54.08,306.779,54.314z M303.302,46.688h-0.019
			l-4.063,6.934h4.082V46.688z"/>
	</g>
	<g clip-path="url(#SVGID_2_)">
		<path d="M339.118,57.244c0,0.124-0.01,0.228-0.029,0.312s-0.045,0.153-0.078,0.205s-0.07,0.09-0.112,0.112
			s-0.086,0.034-0.132,0.034h-6.602c-0.045,0-0.088-0.012-0.127-0.034s-0.077-0.061-0.112-0.112s-0.063-0.12-0.083-0.205
			s-0.029-0.188-0.029-0.312c0-0.117,0.01-0.218,0.029-0.303s0.044-0.154,0.073-0.21s0.065-0.098,0.107-0.127
			s0.089-0.044,0.142-0.044h2.637v-9.609l-2.441,1.455c-0.124,0.065-0.223,0.104-0.298,0.117s-0.135-0.002-0.181-0.044
			s-0.077-0.112-0.093-0.21s-0.024-0.222-0.024-0.371c0-0.11,0.005-0.205,0.015-0.283s0.024-0.144,0.044-0.195
			s0.047-0.098,0.083-0.137s0.083-0.078,0.142-0.117l2.91-1.865c0.026-0.02,0.059-0.036,0.098-0.049s0.088-0.026,0.146-0.039
			s0.127-0.021,0.205-0.024s0.176-0.005,0.293-0.005c0.156,0,0.287,0.007,0.391,0.02s0.186,0.031,0.244,0.054
			s0.098,0.052,0.117,0.088s0.029,0.073,0.029,0.112v11.104h2.285c0.052,0,0.101,0.015,0.146,0.044s0.083,0.071,0.112,0.127
			s0.052,0.125,0.068,0.21S339.118,57.127,339.118,57.244z"/>
		<path d="M343.776,56.844c0,0.462-0.077,0.77-0.229,0.923s-0.431,0.229-0.835,0.229c-0.391,0-0.661-0.075-0.811-0.225
			s-0.225-0.449-0.225-0.898c0-0.462,0.077-0.77,0.229-0.923s0.431-0.229,0.835-0.229c0.391,0,0.661,0.075,0.811,0.225
			S343.776,56.395,343.776,56.844z"/>
		<path d="M354.216,53.846c0,0.677-0.114,1.279-0.342,1.807s-0.55,0.972-0.967,1.333s-0.913,0.637-1.489,0.825
			s-1.216,0.283-1.919,0.283c-0.391,0-0.762-0.027-1.113-0.083s-0.664-0.124-0.938-0.205s-0.498-0.161-0.674-0.239
			s-0.288-0.14-0.337-0.186s-0.083-0.088-0.103-0.127s-0.038-0.086-0.054-0.142s-0.028-0.125-0.034-0.21s-0.01-0.186-0.01-0.303
			c0-0.11,0.005-0.21,0.015-0.298s0.028-0.159,0.054-0.215s0.057-0.096,0.093-0.122s0.077-0.039,0.122-0.039
			c0.065,0,0.166,0.041,0.303,0.122s0.321,0.169,0.552,0.264s0.518,0.184,0.859,0.269s0.747,0.127,1.216,0.127
			c0.437,0,0.837-0.052,1.201-0.156s0.679-0.267,0.942-0.488s0.471-0.5,0.62-0.835s0.225-0.744,0.225-1.226
			c0-0.403-0.063-0.76-0.19-1.069s-0.322-0.566-0.586-0.771s-0.598-0.358-1.001-0.459s-0.886-0.151-1.445-0.151
			c-0.397,0-0.739,0.02-1.025,0.059s-0.554,0.059-0.801,0.059c-0.183,0-0.312-0.042-0.391-0.127s-0.117-0.247-0.117-0.488v-5.146
			c0-0.215,0.05-0.374,0.151-0.479c0.102-0.104,0.246-0.156,0.435-0.156h5.596c0.052,0,0.103,0.015,0.151,0.044
			s0.09,0.073,0.122,0.132s0.058,0.134,0.073,0.225s0.024,0.198,0.024,0.322c0,0.234-0.031,0.417-0.094,0.547
			c-0.062,0.13-0.149,0.195-0.262,0.195h-4.518v3.545c0.22-0.032,0.444-0.052,0.673-0.059s0.494-0.01,0.795-0.01
			c0.696,0,1.305,0.086,1.825,0.259s0.954,0.417,1.303,0.732s0.612,0.698,0.79,1.147C354.127,52.801,354.216,53.299,354.216,53.846z
			"/>
	</g>
	<g clip-path="url(#SVGID_2_)">
		<path d="M387.15,57.244c0,0.124-0.01,0.228-0.029,0.312s-0.045,0.153-0.078,0.205s-0.07,0.09-0.112,0.112
			s-0.087,0.034-0.132,0.034h-6.602c-0.045,0-0.088-0.012-0.127-0.034s-0.076-0.061-0.112-0.112s-0.063-0.12-0.083-0.205
			s-0.029-0.188-0.029-0.312c0-0.117,0.01-0.218,0.029-0.303s0.044-0.154,0.073-0.21s0.065-0.098,0.107-0.127
			s0.089-0.044,0.142-0.044h2.637v-9.609l-2.441,1.455c-0.123,0.065-0.223,0.104-0.298,0.117s-0.136-0.002-0.181-0.044
			s-0.076-0.112-0.093-0.21s-0.024-0.222-0.024-0.371c0-0.11,0.005-0.205,0.015-0.283s0.024-0.144,0.044-0.195
			s0.047-0.098,0.083-0.137s0.083-0.078,0.142-0.117l2.91-1.865c0.025-0.02,0.059-0.036,0.098-0.049s0.088-0.026,0.146-0.039
			s0.127-0.021,0.205-0.024s0.176-0.005,0.293-0.005c0.156,0,0.287,0.007,0.391,0.02s0.186,0.031,0.244,0.054
			s0.098,0.052,0.117,0.088s0.029,0.073,0.029,0.112v11.104h2.285c0.053,0,0.102,0.015,0.146,0.044s0.083,0.071,0.112,0.127
			s0.052,0.125,0.068,0.21S387.15,57.127,387.15,57.244z"/>
		<path d="M391.809,56.844c0,0.462-0.076,0.77-0.229,0.923s-0.431,0.229-0.835,0.229c-0.391,0-0.66-0.075-0.811-0.225
			s-0.225-0.449-0.225-0.898c0-0.462,0.076-0.77,0.229-0.923s0.431-0.229,0.835-0.229c0.391,0,0.66,0.075,0.811,0.225
			S391.809,56.395,391.809,56.844z"/>
		<path d="M402.629,53.816c0,0.554-0.084,1.089-0.254,1.606s-0.43,0.974-0.781,1.367s-0.797,0.71-1.338,0.947
			s-1.178,0.356-1.914,0.356c-0.527,0-0.992-0.065-1.396-0.195s-0.756-0.315-1.055-0.557s-0.549-0.537-0.747-0.889
			s-0.358-0.752-0.479-1.201s-0.206-0.94-0.259-1.475s-0.078-1.106-0.078-1.719c0-0.54,0.029-1.087,0.088-1.641
			s0.162-1.087,0.312-1.602s0.354-0.998,0.61-1.45s0.579-0.847,0.967-1.182s0.851-0.601,1.392-0.796s1.168-0.293,1.885-0.293
			c0.24,0,0.484,0.015,0.732,0.044s0.475,0.068,0.684,0.117s0.385,0.103,0.527,0.161s0.238,0.105,0.283,0.142
			s0.08,0.075,0.103,0.117s0.04,0.088,0.054,0.137s0.023,0.104,0.029,0.166s0.01,0.139,0.01,0.229c0,0.117-0.002,0.218-0.005,0.303
			s-0.017,0.153-0.039,0.205s-0.052,0.091-0.088,0.117s-0.083,0.039-0.142,0.039c-0.072,0-0.17-0.022-0.293-0.068
			s-0.273-0.096-0.449-0.151s-0.389-0.105-0.64-0.151s-0.542-0.068-0.874-0.068c-0.605,0-1.127,0.124-1.562,0.371
			s-0.793,0.579-1.069,0.996s-0.481,0.9-0.615,1.45s-0.21,1.125-0.229,1.724c0.17-0.098,0.359-0.195,0.571-0.293
			s0.442-0.186,0.693-0.264s0.517-0.142,0.796-0.19s0.58-0.073,0.898-0.073c0.684,0,1.26,0.093,1.729,0.278s0.848,0.442,1.138,0.771
			s0.497,0.716,0.62,1.162S402.629,53.296,402.629,53.816z M400.93,53.973c0-0.378-0.037-0.721-0.112-1.03s-0.2-0.571-0.376-0.786
			s-0.41-0.381-0.703-0.498s-0.654-0.176-1.084-0.176c-0.24,0-0.482,0.021-0.723,0.063s-0.474,0.101-0.698,0.176
			s-0.439,0.163-0.645,0.264s-0.392,0.21-0.562,0.327c0,0.84,0.054,1.543,0.161,2.109s0.264,1.021,0.469,1.362
			s0.46,0.586,0.767,0.732s0.664,0.22,1.074,0.22c0.416,0,0.777-0.078,1.084-0.234s0.561-0.366,0.762-0.63s0.35-0.56,0.444-0.889
			S400.93,54.317,400.93,53.973z"/>
	</g>
	<g clip-path="url(#SVGID_2_)">
		<path d="M435.183,57.244c0,0.124-0.01,0.228-0.029,0.312s-0.046,0.153-0.078,0.205s-0.069,0.09-0.112,0.112
			s-0.086,0.034-0.132,0.034h-6.602c-0.046,0-0.088-0.012-0.127-0.034s-0.077-0.061-0.112-0.112s-0.063-0.12-0.083-0.205
			s-0.029-0.188-0.029-0.312c0-0.117,0.01-0.218,0.029-0.303s0.044-0.154,0.073-0.21s0.064-0.098,0.107-0.127
			s0.09-0.044,0.142-0.044h2.637v-9.609l-2.441,1.455c-0.124,0.065-0.224,0.104-0.298,0.117s-0.135-0.002-0.181-0.044
			s-0.077-0.112-0.093-0.21s-0.024-0.222-0.024-0.371c0-0.11,0.005-0.205,0.015-0.283s0.024-0.144,0.044-0.195
			s0.048-0.098,0.083-0.137s0.083-0.078,0.142-0.117l2.91-1.865c0.026-0.02,0.059-0.036,0.098-0.049s0.088-0.026,0.146-0.039
			s0.127-0.021,0.205-0.024s0.176-0.005,0.293-0.005c0.156,0,0.286,0.007,0.391,0.02s0.186,0.031,0.244,0.054
			s0.098,0.052,0.117,0.088s0.029,0.073,0.029,0.112v11.104h2.285c0.052,0,0.101,0.015,0.146,0.044s0.083,0.071,0.112,0.127
			s0.053,0.125,0.068,0.21S435.183,57.127,435.183,57.244z"/>
		<path d="M439.841,56.844c0,0.462-0.077,0.77-0.229,0.923s-0.432,0.229-0.835,0.229c-0.391,0-0.661-0.075-0.811-0.225
			s-0.225-0.449-0.225-0.898c0-0.462,0.077-0.77,0.229-0.923s0.432-0.229,0.835-0.229c0.391,0,0.661,0.075,0.811,0.225
			S439.841,56.395,439.841,56.844z"/>
		<path d="M450.524,45.994c0,0.117-0.005,0.223-0.015,0.317s-0.023,0.186-0.039,0.273s-0.039,0.173-0.068,0.254
			s-0.063,0.168-0.103,0.259l-4.551,10.488c-0.032,0.078-0.073,0.142-0.122,0.19s-0.111,0.088-0.186,0.117s-0.171,0.049-0.288,0.059
			s-0.261,0.015-0.43,0.015c-0.222,0-0.394-0.01-0.518-0.029s-0.214-0.051-0.269-0.093s-0.08-0.095-0.073-0.156
			s0.029-0.135,0.068-0.22l4.785-10.723h-6.064c-0.124,0-0.216-0.065-0.278-0.195s-0.093-0.312-0.093-0.547
			c0-0.124,0.009-0.231,0.024-0.322s0.041-0.168,0.073-0.229s0.071-0.107,0.117-0.137s0.098-0.044,0.156-0.044h7.363
			c0.091,0,0.171,0.01,0.239,0.029s0.121,0.059,0.156,0.117s0.063,0.134,0.083,0.225S450.524,45.851,450.524,45.994z"/>
	</g>
	<g clip-path="url(#SVGID_2_)">
		<path d="M484.291,57.244c0,0.124-0.01,0.228-0.029,0.312s-0.045,0.153-0.078,0.205s-0.07,0.09-0.112,0.112
			s-0.087,0.034-0.132,0.034h-6.602c-0.045,0-0.088-0.012-0.127-0.034s-0.076-0.061-0.112-0.112s-0.063-0.12-0.083-0.205
			s-0.029-0.188-0.029-0.312c0-0.117,0.01-0.218,0.029-0.303s0.044-0.154,0.073-0.21s0.065-0.098,0.107-0.127
			s0.089-0.044,0.142-0.044h2.637v-9.609l-2.441,1.455c-0.123,0.065-0.223,0.104-0.298,0.117s-0.136-0.002-0.181-0.044
			s-0.076-0.112-0.093-0.21s-0.024-0.222-0.024-0.371c0-0.11,0.005-0.205,0.015-0.283s0.024-0.144,0.044-0.195
			s0.047-0.098,0.083-0.137s0.083-0.078,0.142-0.117l2.91-1.865c0.025-0.02,0.059-0.036,0.098-0.049s0.088-0.026,0.146-0.039
			s0.127-0.021,0.205-0.024s0.176-0.005,0.293-0.005c0.156,0,0.287,0.007,0.391,0.02s0.186,0.031,0.244,0.054
			s0.098,0.052,0.117,0.088s0.029,0.073,0.029,0.112v11.104h2.285c0.053,0,0.102,0.015,0.146,0.044s0.083,0.071,0.112,0.127
			s0.052,0.125,0.068,0.21S484.291,57.127,484.291,57.244z"/>
		<path d="M488.949,56.844c0,0.462-0.076,0.77-0.229,0.923s-0.431,0.229-0.835,0.229c-0.391,0-0.66-0.075-0.811-0.225
			s-0.225-0.449-0.225-0.898c0-0.462,0.076-0.77,0.229-0.923s0.431-0.229,0.835-0.229c0.391,0,0.66,0.075,0.811,0.225
			S488.949,56.395,488.949,56.844z"/>
		<path d="M499.74,54.666c0,0.547-0.098,1.033-0.293,1.46s-0.477,0.786-0.845,1.079s-0.821,0.515-1.362,0.664
			s-1.158,0.225-1.855,0.225c-0.65,0-1.234-0.068-1.748-0.205s-0.951-0.339-1.309-0.605s-0.631-0.596-0.82-0.986
			s-0.283-0.837-0.283-1.338c0-0.397,0.064-0.762,0.195-1.094s0.317-0.638,0.562-0.918s0.546-0.542,0.903-0.786
			s0.762-0.477,1.211-0.698c-0.391-0.202-0.736-0.415-1.035-0.64s-0.553-0.469-0.762-0.732s-0.366-0.545-0.474-0.845
			s-0.161-0.625-0.161-0.977c0-0.442,0.08-0.857,0.239-1.245s0.4-0.725,0.723-1.011s0.732-0.513,1.23-0.679s1.079-0.249,1.743-0.249
			c0.639,0,1.189,0.076,1.655,0.229s0.85,0.361,1.152,0.625s0.526,0.574,0.669,0.933s0.215,0.742,0.215,1.152
			c0,0.332-0.054,0.651-0.161,0.957s-0.265,0.596-0.474,0.869s-0.464,0.529-0.767,0.767s-0.649,0.461-1.04,0.669
			c0.463,0.228,0.874,0.462,1.235,0.703s0.664,0.5,0.908,0.776s0.43,0.569,0.557,0.879S499.74,54.295,499.74,54.666z
			 M498.041,54.842c0-0.3-0.055-0.571-0.166-0.815s-0.278-0.472-0.503-0.684s-0.505-0.417-0.84-0.615s-0.724-0.405-1.167-0.62
			c-0.41,0.202-0.77,0.403-1.079,0.605s-0.563,0.41-0.762,0.625s-0.349,0.441-0.449,0.679s-0.151,0.5-0.151,0.786
			c0,0.632,0.217,1.12,0.649,1.465s1.079,0.518,1.938,0.518c0.834,0,1.463-0.174,1.89-0.522S498.041,55.44,498.041,54.842z
			 M497.631,48.182c0-0.273-0.047-0.521-0.142-0.742s-0.233-0.41-0.415-0.566s-0.408-0.275-0.679-0.356s-0.577-0.122-0.923-0.122
			c-0.703,0-1.235,0.159-1.597,0.479s-0.542,0.755-0.542,1.309c0,0.254,0.044,0.49,0.132,0.708s0.225,0.425,0.41,0.62
			s0.42,0.386,0.703,0.571s0.62,0.379,1.011,0.581c0.658-0.339,1.162-0.713,1.514-1.123S497.631,48.677,497.631,48.182z"/>
	</g>
	<g clip-path="url(#SVGID_2_)">
		<path d="M527.28,57.244c0,0.124-0.01,0.228-0.029,0.312s-0.046,0.153-0.078,0.205s-0.069,0.09-0.112,0.112
			s-0.086,0.034-0.132,0.034h-6.602c-0.046,0-0.088-0.012-0.127-0.034s-0.077-0.061-0.112-0.112s-0.063-0.12-0.083-0.205
			s-0.029-0.188-0.029-0.312c0-0.117,0.01-0.218,0.029-0.303s0.044-0.154,0.073-0.21s0.064-0.098,0.107-0.127
			s0.09-0.044,0.142-0.044h2.637v-9.609l-2.441,1.455c-0.124,0.065-0.224,0.104-0.298,0.117s-0.135-0.002-0.181-0.044
			s-0.077-0.112-0.093-0.21s-0.024-0.222-0.024-0.371c0-0.11,0.005-0.205,0.015-0.283s0.024-0.144,0.044-0.195
			s0.048-0.098,0.083-0.137s0.083-0.078,0.142-0.117l2.91-1.865c0.026-0.02,0.059-0.036,0.098-0.049s0.088-0.026,0.146-0.039
			s0.127-0.021,0.205-0.024s0.176-0.005,0.293-0.005c0.156,0,0.286,0.007,0.391,0.02s0.186,0.031,0.244,0.054
			s0.098,0.052,0.117,0.088s0.029,0.073,0.029,0.112v11.104h2.285c0.052,0,0.101,0.015,0.146,0.044s0.083,0.071,0.112,0.127
			s0.053,0.125,0.068,0.21S527.28,57.127,527.28,57.244z"/>
		<path d="M531.938,56.844c0,0.462-0.077,0.77-0.229,0.923s-0.432,0.229-0.835,0.229c-0.391,0-0.661-0.075-0.811-0.225
			s-0.225-0.449-0.225-0.898c0-0.462,0.077-0.77,0.229-0.923s0.432-0.229,0.835-0.229c0.391,0,0.661,0.075,0.811,0.225
			S531.938,56.395,531.938,56.844z"/>
		<path d="M542.534,51.092c0,0.547-0.032,1.101-0.098,1.66s-0.176,1.099-0.332,1.616s-0.366,1.003-0.63,1.455
			s-0.596,0.848-0.996,1.187s-0.875,0.604-1.426,0.796s-1.189,0.288-1.919,0.288c-0.28,0-0.552-0.018-0.815-0.054
			s-0.502-0.08-0.713-0.132s-0.389-0.107-0.532-0.166s-0.247-0.117-0.312-0.176s-0.112-0.139-0.142-0.239s-0.044-0.236-0.044-0.405
			c0-0.144,0.005-0.257,0.015-0.342s0.024-0.149,0.044-0.195s0.048-0.076,0.083-0.093s0.08-0.024,0.132-0.024
			c0.071,0,0.173,0.024,0.303,0.073s0.294,0.103,0.493,0.161s0.432,0.112,0.698,0.161s0.566,0.073,0.898,0.073
			c0.632,0,1.173-0.122,1.626-0.366s0.822-0.571,1.108-0.981s0.501-0.886,0.645-1.426s0.222-1.11,0.234-1.709
			c-0.345,0.202-0.759,0.381-1.24,0.537s-1.035,0.234-1.66,0.234c-0.703,0-1.294-0.096-1.772-0.288s-0.863-0.454-1.152-0.786
			s-0.498-0.726-0.625-1.182s-0.19-0.954-0.19-1.494c0-0.56,0.081-1.092,0.244-1.597s0.417-0.949,0.762-1.333
			s0.784-0.69,1.318-0.918s1.172-0.342,1.914-0.342c0.527,0,0.995,0.066,1.401,0.2s0.76,0.325,1.06,0.576s0.554,0.554,0.762,0.908
			s0.376,0.757,0.503,1.206s0.219,0.936,0.273,1.46S542.534,50.513,542.534,51.092z M540.825,50.906
			c0-0.833-0.056-1.535-0.166-2.104s-0.273-1.03-0.488-1.382s-0.479-0.605-0.791-0.762s-0.674-0.234-1.084-0.234
			c-0.423,0-0.784,0.076-1.084,0.229s-0.546,0.358-0.737,0.615s-0.334,0.549-0.425,0.874s-0.137,0.661-0.137,1.006
			c0,0.384,0.04,0.735,0.122,1.055s0.213,0.589,0.396,0.811s0.42,0.393,0.713,0.513s0.654,0.181,1.084,0.181
			c0.488,0,0.96-0.073,1.416-0.22S540.493,51.147,540.825,50.906z"/>
	</g>
	<g clip-path="url(#SVGID_2_)">
		<path d="M579.25,57.186c0,0.117-0.008,0.222-0.024,0.312s-0.039,0.168-0.068,0.229s-0.068,0.107-0.117,0.137
			s-0.103,0.044-0.161,0.044h-6.982c-0.092,0-0.171-0.012-0.239-0.034s-0.127-0.061-0.176-0.112s-0.085-0.127-0.107-0.225
			s-0.034-0.218-0.034-0.361c0-0.13,0.005-0.244,0.016-0.342c0.01-0.098,0.031-0.184,0.064-0.259s0.076-0.149,0.126-0.225
			c0.051-0.075,0.116-0.154,0.196-0.239l2.525-2.598c0.584-0.599,1.053-1.136,1.404-1.611s0.624-0.908,0.815-1.299
			c0.19-0.391,0.317-0.745,0.377-1.064c0.061-0.319,0.091-0.618,0.091-0.898s-0.047-0.545-0.141-0.796
			c-0.095-0.251-0.23-0.471-0.408-0.659s-0.402-0.339-0.67-0.449c-0.27-0.11-0.578-0.166-0.928-0.166
			c-0.41,0-0.777,0.056-1.104,0.166s-0.611,0.231-0.856,0.361s-0.45,0.251-0.614,0.361s-0.287,0.166-0.368,0.166
			c-0.047,0-0.089-0.013-0.126-0.039s-0.066-0.068-0.09-0.127s-0.043-0.137-0.057-0.234c-0.013-0.098-0.02-0.215-0.02-0.352
			c0-0.098,0.004-0.183,0.01-0.254s0.018-0.134,0.034-0.186s0.038-0.101,0.063-0.146s0.078-0.103,0.156-0.171
			s0.213-0.161,0.405-0.278s0.433-0.232,0.723-0.347s0.608-0.21,0.957-0.288s0.714-0.117,1.099-0.117
			c0.611,0,1.147,0.086,1.606,0.259s0.84,0.408,1.143,0.708s0.528,0.647,0.679,1.045s0.225,0.82,0.225,1.27
			c0,0.403-0.035,0.806-0.107,1.206s-0.223,0.833-0.454,1.299s-0.565,0.983-1.001,1.553s-1.016,1.226-1.738,1.968l-2.002,2.09h5.498
			c0.053,0,0.103,0.015,0.151,0.044s0.091,0.073,0.127,0.132s0.062,0.132,0.078,0.22S579.25,57.068,579.25,57.186z"/>
		<path d="M583.938,56.844c0,0.462-0.076,0.77-0.229,0.923s-0.431,0.229-0.835,0.229c-0.391,0-0.66-0.075-0.811-0.225
			s-0.225-0.449-0.225-0.898c0-0.462,0.076-0.77,0.229-0.923s0.431-0.229,0.835-0.229c0.391,0,0.66,0.075,0.811,0.225
			S583.938,56.395,583.938,56.844z"/>
		<path d="M594.855,51.561c0,0.97-0.076,1.855-0.229,2.656s-0.407,1.489-0.762,2.065s-0.819,1.022-1.392,1.338
			s-1.279,0.474-2.119,0.474c-0.795,0-1.463-0.142-2.007-0.425s-0.981-0.7-1.313-1.25s-0.568-1.228-0.708-2.031
			s-0.21-1.727-0.21-2.769c0-0.964,0.078-1.848,0.234-2.651s0.41-1.494,0.762-2.07s0.814-1.022,1.387-1.338s1.275-0.474,2.109-0.474
			c0.801,0,1.473,0.142,2.017,0.425s0.981,0.7,1.313,1.25s0.568,1.228,0.708,2.031S594.855,50.519,594.855,51.561z M593.137,51.678
			c0-0.632-0.023-1.198-0.068-1.699s-0.112-0.944-0.2-1.328s-0.202-0.715-0.342-0.991s-0.308-0.505-0.503-0.684
			s-0.418-0.31-0.669-0.391s-0.532-0.122-0.845-0.122c-0.553,0-1.002,0.13-1.348,0.391s-0.617,0.618-0.815,1.074
			s-0.333,0.989-0.405,1.602s-0.107,1.27-0.107,1.973c0,0.944,0.049,1.746,0.146,2.407s0.252,1.199,0.464,1.616
			s0.481,0.72,0.811,0.908s0.728,0.283,1.196,0.283c0.365,0,0.686-0.059,0.962-0.176s0.515-0.285,0.713-0.503
			s0.362-0.48,0.493-0.786s0.234-0.645,0.312-1.016s0.132-0.773,0.161-1.206S593.137,52.146,593.137,51.678z"/>
	</g>

		<path clip-path="url(#SVGID_2_)" fill="none" stroke="#305274" stroke-width="2" stroke-linejoin="round" stroke-miterlimit="10" d="
		M132.812,181.401"/>

		<path clip-path="url(#SVGID_2_)" fill="none" stroke="#305274" stroke-width="2" stroke-linejoin="round" stroke-miterlimit="10" d="
		M236.662,181.175"/>
	<g clip-path="url(#SVGID_2_)">
		<path d="M103.531,205.406c0,0.11-0.003,0.207-0.01,0.288s-0.018,0.149-0.034,0.205s-0.036,0.104-0.059,0.146
			s-0.075,0.104-0.156,0.186s-0.22,0.183-0.415,0.303s-0.415,0.228-0.659,0.322s-0.509,0.171-0.796,0.229s-0.583,0.088-0.889,0.088
			c-0.631,0-1.191-0.104-1.68-0.312s-0.897-0.513-1.226-0.913s-0.58-0.892-0.752-1.475s-0.259-1.255-0.259-2.017
			c0-0.866,0.106-1.609,0.317-2.231s0.501-1.131,0.869-1.528s0.801-0.691,1.299-0.884s1.037-0.288,1.616-0.288
			c0.28,0,0.552,0.026,0.815,0.078s0.506,0.12,0.728,0.205s0.418,0.183,0.591,0.293s0.298,0.205,0.376,0.283s0.132,0.14,0.161,0.186
			s0.054,0.1,0.073,0.161s0.033,0.132,0.039,0.21s0.01,0.176,0.01,0.293c0,0.254-0.029,0.432-0.088,0.532s-0.13,0.151-0.215,0.151
			c-0.098,0-0.21-0.054-0.337-0.161s-0.288-0.227-0.483-0.356s-0.431-0.249-0.708-0.356s-0.604-0.161-0.981-0.161
			c-0.775,0-1.369,0.298-1.782,0.894s-0.62,1.46-0.62,2.593c0,0.566,0.054,1.062,0.161,1.489s0.265,0.783,0.474,1.069
			s0.464,0.5,0.767,0.64s0.649,0.21,1.04,0.21c0.371,0,0.697-0.059,0.977-0.176s0.522-0.246,0.728-0.386s0.377-0.267,0.518-0.381
			s0.249-0.171,0.327-0.171c0.045,0,0.084,0.013,0.117,0.039s0.06,0.07,0.083,0.132s0.039,0.14,0.049,0.234
			S103.531,205.276,103.531,205.406z"/>
	</g>
	<g clip-path="url(#SVGID_2_)">
		<path d="M166.643,206.744c0,0.052-0.011,0.098-0.034,0.137s-0.062,0.07-0.117,0.093s-0.128,0.041-0.22,0.054
			s-0.202,0.02-0.332,0.02c-0.137,0-0.25-0.007-0.342-0.02s-0.166-0.031-0.225-0.054s-0.101-0.054-0.127-0.093
			s-0.039-0.085-0.039-0.137v-1.162c-0.462,0.501-0.942,0.892-1.44,1.172s-1.043,0.42-1.636,0.42c-0.645,0-1.195-0.125-1.65-0.376
			s-0.825-0.589-1.108-1.016s-0.49-0.928-0.62-1.504s-0.195-1.184-0.195-1.821c0-0.755,0.082-1.438,0.244-2.046
			s0.404-1.128,0.723-1.558s0.714-0.76,1.187-0.991s1.017-0.347,1.636-0.347c0.514,0,0.985,0.112,1.411,0.337
			s0.848,0.555,1.265,0.991v-5.107c0-0.046,0.011-0.09,0.034-0.132s0.067-0.075,0.132-0.098s0.148-0.042,0.249-0.059
			s0.229-0.024,0.386-0.024c0.163,0,0.296,0.008,0.4,0.024s0.186,0.036,0.244,0.059s0.103,0.056,0.132,0.098
			s0.044,0.086,0.044,0.132V206.744z M165.021,200.562c-0.436-0.54-0.858-0.952-1.265-1.235s-0.832-0.425-1.274-0.425
			c-0.41,0-0.758,0.098-1.045,0.293s-0.519,0.452-0.698,0.771s-0.309,0.681-0.391,1.084s-0.122,0.813-0.122,1.23
			c0,0.442,0.034,0.876,0.103,1.299s0.187,0.799,0.356,1.128s0.394,0.593,0.674,0.791s0.631,0.298,1.055,0.298
			c0.215,0,0.421-0.029,0.62-0.088s0.402-0.156,0.61-0.293s0.426-0.314,0.654-0.532s0.469-0.486,0.723-0.806V200.562z"/>
	</g>
	<g clip-path="url(#SVGID_2_)">
		<path d="M229.93,201.969c0,0.254-0.064,0.435-0.191,0.542s-0.273,0.161-0.437,0.161h-5.788c0,0.488,0.049,0.928,0.147,1.318
			s0.262,0.726,0.491,1.006s0.527,0.495,0.893,0.645s0.814,0.225,1.344,0.225c0.419,0,0.792-0.034,1.119-0.103
			s0.61-0.145,0.849-0.229s0.435-0.161,0.589-0.229s0.27-0.103,0.349-0.103c0.045,0,0.086,0.012,0.122,0.034
			c0.036,0.022,0.064,0.057,0.083,0.103s0.035,0.109,0.044,0.19s0.015,0.181,0.015,0.298c0,0.085-0.003,0.158-0.01,0.22
			s-0.015,0.117-0.024,0.166s-0.026,0.093-0.049,0.132s-0.052,0.076-0.088,0.112s-0.142,0.095-0.317,0.176s-0.404,0.161-0.684,0.239
			s-0.604,0.148-0.972,0.21s-0.76,0.093-1.177,0.093c-0.723,0-1.356-0.101-1.899-0.303s-1.001-0.501-1.372-0.898
			s-0.651-0.896-0.84-1.494s-0.283-1.296-0.283-2.09c0-0.755,0.098-1.434,0.293-2.036s0.477-1.113,0.845-1.533
			s0.812-0.742,1.333-0.967s1.104-0.337,1.748-0.337c0.69,0,1.278,0.11,1.763,0.332s0.884,0.52,1.196,0.894s0.542,0.813,0.688,1.318
			s0.22,1.043,0.22,1.616V201.969z M228.309,201.49c0.02-0.847-0.169-1.511-0.565-1.992c-0.396-0.481-0.984-0.723-1.764-0.723
			c-0.4,0-0.75,0.075-1.051,0.225s-0.554,0.349-0.757,0.596s-0.36,0.535-0.472,0.864s-0.173,0.672-0.187,1.03H228.309z"/>
	</g>
	<g clip-path="url(#SVGID_2_)">
		<path d="M268.116,194.703c0,0.124-0.006,0.223-0.02,0.298s-0.028,0.135-0.044,0.181s-0.038,0.076-0.063,0.093
			s-0.059,0.024-0.098,0.024c-0.045,0-0.103-0.015-0.171-0.044s-0.151-0.062-0.249-0.098s-0.213-0.068-0.347-0.098
			s-0.288-0.044-0.464-0.044c-0.241,0-0.446,0.039-0.615,0.117s-0.306,0.2-0.41,0.366s-0.179,0.381-0.225,0.645
			s-0.068,0.584-0.068,0.962v0.957h1.963c0.052,0,0.096,0.012,0.132,0.034s0.068,0.062,0.098,0.117s0.052,0.125,0.068,0.21
			s0.024,0.188,0.024,0.312c0,0.234-0.029,0.403-0.088,0.508s-0.137,0.156-0.234,0.156h-1.963v7.705
			c0,0.052-0.013,0.096-0.039,0.132s-0.07,0.066-0.132,0.093s-0.145,0.046-0.249,0.059s-0.234,0.02-0.391,0.02
			s-0.287-0.007-0.391-0.02s-0.187-0.032-0.249-0.059s-0.106-0.057-0.132-0.093s-0.039-0.08-0.039-0.132V199.4h-1.24
			c-0.104,0-0.182-0.052-0.234-0.156s-0.078-0.273-0.078-0.508c0-0.124,0.006-0.228,0.02-0.312s0.033-0.154,0.059-0.21
			s0.059-0.095,0.098-0.117s0.084-0.034,0.137-0.034h1.24v-0.908c0-0.612,0.057-1.138,0.171-1.577s0.288-0.799,0.522-1.079
			s0.529-0.486,0.884-0.62s0.773-0.2,1.255-0.2c0.228,0,0.449,0.021,0.664,0.063s0.381,0.088,0.498,0.137s0.195,0.093,0.234,0.132
			s0.072,0.09,0.098,0.151s0.044,0.137,0.054,0.225S268.116,194.579,268.116,194.703z"/>
	</g>
	<g clip-path="url(#SVGID_2_)">
		<path d="M346.039,198.717c0,0.228-0.031,0.393-0.093,0.493s-0.142,0.151-0.239,0.151h-1.26c0.228,0.234,0.387,0.493,0.479,0.776
			s0.137,0.578,0.137,0.884c0,0.508-0.082,0.957-0.244,1.348s-0.396,0.721-0.698,0.991s-0.663,0.477-1.079,0.62
			s-0.879,0.215-1.387,0.215c-0.358,0-0.698-0.047-1.021-0.142s-0.571-0.213-0.747-0.356c-0.117,0.117-0.213,0.251-0.288,0.4
			s-0.112,0.322-0.112,0.518c0,0.228,0.106,0.417,0.317,0.566s0.493,0.231,0.845,0.244l2.295,0.098
			c0.436,0.013,0.836,0.073,1.201,0.181s0.68,0.261,0.947,0.459s0.475,0.442,0.625,0.732s0.225,0.627,0.225,1.011
			c0,0.403-0.084,0.788-0.254,1.152s-0.428,0.686-0.776,0.962s-0.792,0.495-1.333,0.654s-1.178,0.239-1.914,0.239
			c-0.709,0-1.313-0.061-1.812-0.181s-0.907-0.285-1.226-0.493s-0.55-0.457-0.693-0.747s-0.215-0.604-0.215-0.942
			c0-0.215,0.026-0.423,0.078-0.625s0.132-0.394,0.239-0.576s0.241-0.356,0.4-0.522s0.343-0.33,0.552-0.493
			c-0.319-0.163-0.555-0.368-0.708-0.615s-0.229-0.515-0.229-0.801c0-0.397,0.082-0.752,0.244-1.064s0.365-0.593,0.605-0.84
			c-0.202-0.241-0.361-0.513-0.479-0.815s-0.176-0.669-0.176-1.099c0-0.501,0.084-0.95,0.254-1.348s0.404-0.732,0.703-1.006
			s0.659-0.483,1.079-0.63s0.877-0.22,1.372-0.22c0.267,0,0.516,0.015,0.747,0.044s0.448,0.07,0.649,0.122h2.656
			c0.111,0,0.194,0.054,0.249,0.161S346.039,198.495,346.039,198.717z M344.33,207.994c0-0.378-0.155-0.669-0.464-0.874
			s-0.728-0.314-1.255-0.327l-2.275-0.078c-0.208,0.163-0.379,0.317-0.513,0.464s-0.239,0.286-0.317,0.42s-0.132,0.266-0.161,0.396
			s-0.044,0.264-0.044,0.4c0,0.423,0.215,0.744,0.645,0.962s1.029,0.327,1.797,0.327c0.488,0,0.897-0.047,1.226-0.142
			s0.594-0.22,0.796-0.376s0.347-0.335,0.435-0.537S344.33,208.216,344.33,207.994z M343.52,201.031
			c0-0.599-0.165-1.066-0.493-1.401s-0.796-0.503-1.401-0.503c-0.312,0-0.584,0.052-0.815,0.156s-0.423,0.247-0.576,0.43
			s-0.267,0.393-0.342,0.63s-0.112,0.486-0.112,0.747c0,0.579,0.165,1.035,0.493,1.367s0.79,0.498,1.382,0.498
			c0.319,0,0.596-0.051,0.83-0.151s0.428-0.241,0.581-0.42s0.267-0.386,0.342-0.62S343.52,201.285,343.52,201.031z"/>
	</g>
	<g clip-path="url(#SVGID_2_)">
		<path d="M435.234,207.115c0,0.078-0.025,0.137-0.078,0.176s-0.123,0.068-0.215,0.088s-0.225,0.029-0.4,0.029
			c-0.17,0-0.305-0.01-0.405-0.029s-0.175-0.049-0.22-0.088s-0.068-0.098-0.068-0.176v-0.879c-0.385,0.41-0.812,0.729-1.284,0.957
			s-0.972,0.342-1.499,0.342c-0.463,0-0.881-0.061-1.255-0.181s-0.693-0.295-0.957-0.522s-0.469-0.508-0.615-0.84
			s-0.22-0.71-0.22-1.133c0-0.495,0.102-0.925,0.303-1.289s0.492-0.667,0.869-0.908s0.84-0.422,1.387-0.542s1.162-0.181,1.846-0.181
			h1.211v-0.684c0-0.339-0.035-0.638-0.107-0.898s-0.188-0.477-0.347-0.649s-0.366-0.303-0.62-0.391s-0.566-0.132-0.938-0.132
			c-0.396,0-0.754,0.047-1.069,0.142s-0.593,0.198-0.83,0.312s-0.437,0.218-0.596,0.312s-0.278,0.142-0.356,0.142
			c-0.053,0-0.098-0.013-0.137-0.039s-0.073-0.065-0.103-0.117s-0.05-0.119-0.063-0.2s-0.02-0.171-0.02-0.269
			c0-0.163,0.012-0.291,0.034-0.386s0.078-0.184,0.166-0.269s0.239-0.184,0.454-0.298s0.463-0.218,0.742-0.312
			s0.586-0.173,0.918-0.234s0.668-0.093,1.006-0.093c0.631,0,1.168,0.071,1.611,0.215s0.801,0.354,1.074,0.63s0.473,0.62,0.596,1.03
			s0.186,0.889,0.186,1.436V207.115z M433.633,203.102h-1.377c-0.443,0-0.826,0.037-1.152,0.112s-0.596,0.186-0.811,0.332
			s-0.373,0.322-0.474,0.527s-0.151,0.441-0.151,0.708c0,0.456,0.145,0.818,0.435,1.089s0.694,0.405,1.216,0.405
			c0.424,0,0.815-0.107,1.177-0.322s0.741-0.544,1.138-0.986V203.102z"/>
	</g>
	<g clip-path="url(#SVGID_2_)">
		<path d="M537.435,202.232c0,0.762-0.083,1.447-0.249,2.056s-0.41,1.128-0.732,1.558s-0.718,0.759-1.187,0.986
			s-1.006,0.342-1.611,0.342c-0.28,0-0.538-0.027-0.776-0.083s-0.471-0.145-0.698-0.269s-0.456-0.28-0.684-0.469
			s-0.469-0.417-0.723-0.684v1.074c0,0.052-0.013,0.098-0.039,0.137s-0.068,0.07-0.127,0.093s-0.132,0.041-0.22,0.054
			s-0.2,0.02-0.337,0.02c-0.13,0-0.241-0.007-0.332-0.02s-0.166-0.031-0.225-0.054s-0.098-0.054-0.117-0.093
			s-0.029-0.085-0.029-0.137v-13.047c0-0.052,0.011-0.098,0.034-0.137s0.064-0.071,0.127-0.098s0.145-0.046,0.249-0.059
			s0.234-0.02,0.391-0.02c0.163,0,0.296,0.007,0.4,0.02s0.186,0.032,0.244,0.059s0.101,0.059,0.127,0.098s0.039,0.085,0.039,0.137
			v5.264c0.261-0.267,0.513-0.491,0.757-0.674s0.483-0.33,0.718-0.444s0.469-0.197,0.703-0.249s0.481-0.078,0.742-0.078
			c0.638,0,1.183,0.127,1.636,0.381s0.82,0.594,1.104,1.021s0.49,0.926,0.62,1.499S537.435,201.595,537.435,202.232z
			 M535.765,202.418c0-0.449-0.034-0.886-0.103-1.309c-0.069-0.423-0.189-0.798-0.359-1.123s-0.396-0.588-0.678-0.786
			s-0.633-0.298-1.052-0.298c-0.21,0-0.415,0.029-0.618,0.088s-0.41,0.156-0.619,0.293c-0.21,0.137-0.428,0.312-0.654,0.527
			c-0.226,0.215-0.467,0.485-0.722,0.811v3.506c0.445,0.54,0.871,0.952,1.277,1.235s0.829,0.425,1.268,0.425
			c0.405,0,0.753-0.098,1.042-0.293c0.287-0.195,0.521-0.454,0.701-0.776c0.181-0.322,0.312-0.684,0.394-1.084
			C535.724,203.233,535.765,202.828,535.765,202.418z"/>
	</g>
	<g clip-path="url(#SVGID_2_)">
		<path d="M586.595,205.768c0,0.11-0.003,0.207-0.01,0.288s-0.019,0.149-0.034,0.205s-0.035,0.104-0.059,0.146
			s-0.074,0.104-0.156,0.186s-0.22,0.183-0.415,0.303s-0.415,0.228-0.659,0.322s-0.51,0.171-0.796,0.229s-0.583,0.088-0.889,0.088
			c-0.632,0-1.191-0.104-1.68-0.312s-0.897-0.513-1.226-0.913s-0.58-0.892-0.752-1.475s-0.259-1.255-0.259-2.017
			c0-0.866,0.106-1.609,0.317-2.231s0.502-1.131,0.869-1.528s0.801-0.691,1.299-0.884s1.037-0.288,1.616-0.288
			c0.28,0,0.552,0.026,0.815,0.078s0.506,0.12,0.728,0.205s0.419,0.183,0.591,0.293s0.298,0.205,0.376,0.283s0.132,0.14,0.161,0.186
			s0.054,0.1,0.073,0.161s0.032,0.132,0.039,0.21s0.01,0.176,0.01,0.293c0,0.254-0.029,0.432-0.088,0.532s-0.13,0.151-0.215,0.151
			c-0.098,0-0.21-0.054-0.337-0.161s-0.288-0.227-0.483-0.356s-0.431-0.249-0.708-0.356s-0.604-0.161-0.981-0.161
			c-0.774,0-1.368,0.298-1.782,0.894s-0.62,1.46-0.62,2.593c0,0.566,0.054,1.062,0.161,1.489s0.266,0.783,0.474,1.069
			s0.464,0.5,0.767,0.64s0.649,0.21,1.04,0.21c0.371,0,0.696-0.059,0.977-0.176s0.522-0.246,0.728-0.386s0.377-0.267,0.518-0.381
			s0.249-0.171,0.327-0.171c0.046,0,0.085,0.013,0.117,0.039s0.06,0.07,0.083,0.132s0.039,0.14,0.049,0.234
			S586.595,205.638,586.595,205.768z"/>
	</g>
</g>
<g>
	<path d="M298.978,14.011c0,0.716-0.094,1.375-0.283,1.978s-0.47,1.121-0.845,1.558s-0.843,0.776-1.406,1.021
		s-1.216,0.366-1.958,0.366c-0.723,0-1.353-0.107-1.89-0.322s-0.985-0.527-1.343-0.938s-0.625-0.908-0.801-1.494
		s-0.264-1.25-0.264-1.992c0-0.716,0.093-1.375,0.278-1.978s0.465-1.121,0.84-1.558s0.841-0.774,1.401-1.016
		s1.214-0.361,1.963-0.361c0.723,0,1.353,0.107,1.89,0.322s0.985,0.527,1.343,0.938s0.626,0.908,0.806,1.494
		S298.978,13.275,298.978,14.011z M297.308,14.118c0-0.476-0.044-0.925-0.133-1.348c-0.089-0.423-0.235-0.794-0.439-1.113
		s-0.479-0.571-0.828-0.757s-0.782-0.278-1.301-0.278c-0.479,0-0.892,0.085-1.236,0.254c-0.345,0.169-0.629,0.408-0.853,0.718
		c-0.224,0.31-0.389,0.676-0.498,1.099s-0.163,0.886-0.163,1.387c0,0.481,0.044,0.935,0.133,1.357
		c0.089,0.423,0.237,0.793,0.444,1.108c0.207,0.315,0.484,0.566,0.833,0.752c0.348,0.186,0.782,0.278,1.301,0.278
		c0.473,0,0.883-0.085,1.231-0.254s0.634-0.407,0.857-0.713c0.223-0.306,0.388-0.671,0.493-1.094S297.308,14.626,297.308,14.118z"/>
	<path d="M308.919,18.503c0,0.052-0.013,0.096-0.039,0.132s-0.068,0.066-0.127,0.093s-0.14,0.046-0.244,0.059
		s-0.234,0.02-0.391,0.02c-0.163,0-0.296-0.007-0.4-0.02s-0.186-0.032-0.244-0.059s-0.101-0.057-0.127-0.093
		s-0.039-0.08-0.039-0.132v-5.146c0-0.501-0.039-0.905-0.117-1.211s-0.192-0.569-0.342-0.791s-0.343-0.391-0.581-0.508
		s-0.513-0.176-0.825-0.176c-0.404,0-0.807,0.144-1.211,0.43s-0.827,0.706-1.27,1.26v6.143c0,0.052-0.013,0.096-0.039,0.132
		s-0.068,0.066-0.127,0.093s-0.14,0.046-0.244,0.059s-0.238,0.02-0.4,0.02c-0.156,0-0.287-0.007-0.391-0.02
		s-0.187-0.032-0.249-0.059s-0.104-0.057-0.127-0.093s-0.034-0.08-0.034-0.132V9.714c0-0.052,0.01-0.096,0.029-0.132
		s0.059-0.068,0.117-0.098s0.133-0.049,0.225-0.059s0.211-0.015,0.361-0.015c0.143,0,0.262,0.005,0.356,0.015
		s0.167,0.029,0.22,0.059s0.089,0.062,0.112,0.098s0.034,0.08,0.034,0.132v1.162c0.495-0.554,0.988-0.959,1.479-1.216
		s0.988-0.386,1.489-0.386c0.586,0,1.079,0.1,1.479,0.298s0.724,0.464,0.972,0.796s0.425,0.721,0.532,1.167s0.161,0.981,0.161,1.606
		V18.503z"/>
	<path d="M319.358,13.728c0,0.254-0.064,0.435-0.191,0.542s-0.273,0.161-0.437,0.161h-5.788c0,0.488,0.049,0.928,0.147,1.318
		s0.262,0.726,0.491,1.006s0.527,0.495,0.893,0.645s0.814,0.225,1.344,0.225c0.419,0,0.792-0.034,1.119-0.103
		s0.61-0.145,0.849-0.229s0.435-0.161,0.589-0.229s0.27-0.103,0.349-0.103c0.045,0,0.086,0.012,0.122,0.034
		c0.036,0.022,0.064,0.057,0.083,0.103s0.035,0.109,0.044,0.19s0.015,0.181,0.015,0.298c0,0.085-0.003,0.158-0.01,0.22
		s-0.015,0.117-0.024,0.166s-0.026,0.093-0.049,0.132s-0.052,0.076-0.088,0.112s-0.142,0.095-0.317,0.176s-0.404,0.161-0.684,0.239
		s-0.604,0.148-0.972,0.21s-0.76,0.093-1.177,0.093c-0.723,0-1.356-0.101-1.899-0.303s-1.001-0.501-1.372-0.898
		s-0.651-0.896-0.84-1.494s-0.283-1.296-0.283-2.09c0-0.755,0.098-1.434,0.293-2.036s0.477-1.113,0.845-1.533
		s0.812-0.742,1.333-0.967s1.104-0.337,1.748-0.337c0.69,0,1.278,0.11,1.763,0.332s0.884,0.52,1.196,0.894s0.542,0.813,0.688,1.318
		s0.22,1.043,0.22,1.616V13.728z M317.737,13.249c0.02-0.847-0.169-1.511-0.565-1.992c-0.396-0.481-0.984-0.723-1.764-0.723
		c-0.4,0-0.75,0.075-1.051,0.225s-0.554,0.349-0.757,0.596s-0.36,0.535-0.472,0.864s-0.173,0.672-0.187,1.03H317.737z"/>
	<path d="M334.505,14.011c0,0.716-0.094,1.375-0.283,1.978s-0.47,1.121-0.845,1.558s-0.843,0.776-1.406,1.021
		s-1.216,0.366-1.958,0.366c-0.723,0-1.353-0.107-1.89-0.322s-0.985-0.527-1.343-0.938s-0.625-0.908-0.801-1.494
		s-0.264-1.25-0.264-1.992c0-0.716,0.093-1.375,0.278-1.978s0.465-1.121,0.84-1.558s0.841-0.774,1.401-1.016
		s1.214-0.361,1.963-0.361c0.723,0,1.353,0.107,1.89,0.322s0.985,0.527,1.343,0.938s0.626,0.908,0.806,1.494
		S334.505,13.275,334.505,14.011z M332.835,14.118c0-0.476-0.044-0.925-0.133-1.348c-0.089-0.423-0.235-0.794-0.439-1.113
		s-0.479-0.571-0.828-0.757s-0.782-0.278-1.301-0.278c-0.479,0-0.892,0.085-1.236,0.254c-0.345,0.169-0.629,0.408-0.853,0.718
		c-0.224,0.31-0.389,0.676-0.498,1.099s-0.163,0.886-0.163,1.387c0,0.481,0.044,0.935,0.133,1.357
		c0.089,0.423,0.237,0.793,0.444,1.108c0.207,0.315,0.484,0.566,0.833,0.752c0.348,0.186,0.782,0.278,1.301,0.278
		c0.473,0,0.883-0.085,1.231-0.254s0.634-0.407,0.857-0.713c0.223-0.306,0.388-0.671,0.493-1.094S332.835,14.626,332.835,14.118z"/>
	<path d="M343.196,17.165c0,0.11-0.003,0.207-0.01,0.288s-0.018,0.149-0.034,0.205s-0.036,0.104-0.059,0.146
		s-0.075,0.104-0.156,0.186s-0.22,0.183-0.415,0.303s-0.415,0.228-0.659,0.322s-0.509,0.171-0.796,0.229s-0.583,0.088-0.889,0.088
		c-0.631,0-1.191-0.104-1.68-0.312s-0.897-0.513-1.226-0.913s-0.58-0.892-0.752-1.475s-0.259-1.255-0.259-2.017
		c0-0.866,0.106-1.609,0.317-2.231s0.501-1.131,0.869-1.528s0.801-0.691,1.299-0.884s1.037-0.288,1.616-0.288
		c0.28,0,0.552,0.026,0.815,0.078s0.506,0.12,0.728,0.205s0.418,0.183,0.591,0.293s0.298,0.205,0.376,0.283s0.132,0.14,0.161,0.186
		s0.054,0.1,0.073,0.161s0.033,0.132,0.039,0.21s0.01,0.176,0.01,0.293c0,0.254-0.029,0.432-0.088,0.532s-0.13,0.151-0.215,0.151
		c-0.098,0-0.21-0.054-0.337-0.161s-0.288-0.227-0.483-0.356s-0.431-0.249-0.708-0.356s-0.604-0.161-0.981-0.161
		c-0.775,0-1.369,0.298-1.782,0.894s-0.62,1.46-0.62,2.593c0,0.566,0.054,1.062,0.161,1.489s0.265,0.783,0.474,1.069
		s0.464,0.5,0.767,0.64s0.649,0.21,1.04,0.21c0.371,0,0.697-0.059,0.977-0.176s0.522-0.246,0.728-0.386s0.377-0.267,0.518-0.381
		s0.249-0.171,0.327-0.171c0.045,0,0.084,0.013,0.117,0.039s0.06,0.07,0.083,0.132s0.039,0.14,0.049,0.234
		S343.196,17.035,343.196,17.165z"/>
	<path d="M349.905,17.858c0,0.188-0.013,0.339-0.039,0.449s-0.065,0.192-0.117,0.244s-0.13,0.101-0.234,0.146
		s-0.224,0.083-0.356,0.112s-0.275,0.054-0.425,0.073s-0.3,0.029-0.449,0.029c-0.456,0-0.847-0.061-1.172-0.181
		c-0.326-0.12-0.592-0.303-0.801-0.547s-0.36-0.554-0.454-0.928s-0.142-0.815-0.142-1.323v-5.137h-1.23
		c-0.098,0-0.176-0.052-0.234-0.156s-0.088-0.273-0.088-0.508c0-0.124,0.008-0.228,0.024-0.312s0.038-0.154,0.063-0.21
		s0.06-0.095,0.103-0.117s0.089-0.034,0.142-0.034h1.221V7.37c0-0.046,0.011-0.088,0.034-0.127s0.065-0.073,0.127-0.103
		s0.145-0.051,0.249-0.063s0.234-0.02,0.391-0.02c0.163,0,0.296,0.007,0.4,0.02c0.104,0.013,0.186,0.034,0.244,0.063
		s0.101,0.063,0.127,0.103s0.039,0.081,0.039,0.127v2.09h2.256c0.052,0,0.098,0.012,0.137,0.034s0.073,0.062,0.103,0.117
		s0.051,0.125,0.063,0.21s0.02,0.188,0.02,0.312c0,0.234-0.029,0.403-0.088,0.508s-0.137,0.156-0.234,0.156h-2.256V15.7
		c0,0.605,0.089,1.062,0.269,1.372s0.5,0.464,0.962,0.464c0.149,0,0.283-0.015,0.4-0.044s0.222-0.061,0.312-0.093
		s0.169-0.063,0.234-0.093s0.124-0.044,0.176-0.044c0.032,0,0.063,0.008,0.093,0.024s0.053,0.047,0.068,0.093
		s0.031,0.107,0.044,0.186S349.905,17.741,349.905,17.858z"/>
	<path d="M358.655,18.513c0,0.078-0.026,0.137-0.078,0.176s-0.124,0.068-0.215,0.088s-0.225,0.029-0.4,0.029
		c-0.169,0-0.304-0.01-0.405-0.029s-0.174-0.049-0.22-0.088s-0.068-0.098-0.068-0.176v-0.879c-0.384,0.41-0.812,0.729-1.284,0.957
		s-0.972,0.342-1.499,0.342c-0.462,0-0.88-0.061-1.255-0.181s-0.693-0.295-0.957-0.522s-0.469-0.508-0.615-0.84
		s-0.22-0.71-0.22-1.133c0-0.495,0.101-0.925,0.303-1.289s0.491-0.667,0.869-0.908s0.84-0.422,1.387-0.542s1.162-0.181,1.846-0.181
		h1.211v-0.684c0-0.339-0.036-0.638-0.107-0.898s-0.187-0.477-0.347-0.649s-0.366-0.303-0.62-0.391s-0.566-0.132-0.938-0.132
		c-0.397,0-0.753,0.047-1.069,0.142s-0.592,0.198-0.83,0.312s-0.436,0.218-0.596,0.312s-0.278,0.142-0.356,0.142
		c-0.052,0-0.098-0.013-0.137-0.039s-0.073-0.065-0.103-0.117s-0.051-0.119-0.063-0.2s-0.02-0.171-0.02-0.269
		c0-0.163,0.011-0.291,0.034-0.386s0.078-0.184,0.166-0.269s0.239-0.184,0.454-0.298s0.462-0.218,0.742-0.312
		s0.586-0.173,0.918-0.234s0.667-0.093,1.006-0.093c0.632,0,1.169,0.071,1.611,0.215s0.801,0.354,1.074,0.63s0.472,0.62,0.596,1.03
		s0.186,0.889,0.186,1.436V18.513z M357.054,14.499h-1.377c-0.442,0-0.827,0.037-1.152,0.112s-0.596,0.186-0.811,0.332
		s-0.372,0.322-0.474,0.527s-0.151,0.441-0.151,0.708c0,0.456,0.146,0.818,0.435,1.089s0.695,0.405,1.216,0.405
		c0.423,0,0.815-0.107,1.177-0.322s0.74-0.544,1.138-0.986V14.499z"/>
	<path d="M368.821,9.694c0,0.026-0.001,0.054-0.005,0.083s-0.008,0.061-0.015,0.093s-0.015,0.068-0.024,0.107
		s-0.021,0.081-0.034,0.127l-2.998,8.35c-0.026,0.071-0.06,0.13-0.103,0.176s-0.105,0.081-0.19,0.107s-0.192,0.044-0.322,0.054
		s-0.293,0.015-0.488,0.015s-0.358-0.007-0.488-0.02s-0.235-0.032-0.317-0.059s-0.145-0.062-0.19-0.107s-0.081-0.101-0.107-0.166
		l-2.988-8.35c-0.026-0.078-0.048-0.146-0.063-0.205s-0.025-0.103-0.029-0.132s-0.005-0.054-0.005-0.073
		c0-0.052,0.013-0.098,0.039-0.137s0.069-0.07,0.132-0.093s0.143-0.037,0.244-0.044s0.227-0.01,0.376-0.01
		c0.188,0,0.341,0.005,0.454,0.015s0.201,0.027,0.264,0.054s0.107,0.059,0.137,0.098s0.057,0.088,0.083,0.146l2.48,7.246
		l0.039,0.117l0.029-0.117l2.451-7.246c0.013-0.059,0.036-0.107,0.068-0.146s0.079-0.071,0.142-0.098s0.146-0.044,0.254-0.054
		s0.249-0.015,0.425-0.015c0.149,0,0.273,0.003,0.371,0.01s0.175,0.022,0.229,0.049s0.094,0.057,0.117,0.093
		S368.821,9.643,368.821,9.694z"/>
	<path d="M378.147,13.728c0,0.254-0.063,0.435-0.191,0.542s-0.272,0.161-0.437,0.161h-5.788c0,0.488,0.049,0.928,0.147,1.318
		c0.098,0.391,0.262,0.726,0.49,1.006s0.527,0.495,0.893,0.645c0.367,0.149,0.814,0.225,1.345,0.225
		c0.419,0,0.792-0.034,1.118-0.103c0.328-0.068,0.611-0.145,0.85-0.229s0.436-0.161,0.589-0.229s0.271-0.103,0.349-0.103
		c0.045,0,0.086,0.012,0.122,0.034s0.063,0.057,0.083,0.103s0.035,0.109,0.045,0.19s0.015,0.181,0.015,0.298
		c0,0.085-0.003,0.158-0.01,0.22s-0.015,0.117-0.024,0.166s-0.025,0.093-0.049,0.132s-0.053,0.076-0.088,0.112
		s-0.142,0.095-0.317,0.176s-0.403,0.161-0.684,0.239s-0.604,0.148-0.972,0.21s-0.76,0.093-1.177,0.093
		c-0.723,0-1.356-0.101-1.899-0.303s-1.001-0.501-1.372-0.898s-0.651-0.896-0.84-1.494s-0.283-1.296-0.283-2.09
		c0-0.755,0.098-1.434,0.293-2.036s0.478-1.113,0.845-1.533s0.812-0.742,1.333-0.967s1.104-0.337,1.748-0.337
		c0.69,0,1.278,0.11,1.763,0.332s0.884,0.52,1.196,0.894s0.542,0.813,0.688,1.318s0.22,1.043,0.22,1.616V13.728z M376.526,13.249
		c0.02-0.847-0.169-1.511-0.565-1.992s-0.984-0.723-1.764-0.723c-0.399,0-0.75,0.075-1.051,0.225s-0.554,0.349-0.757,0.596
		s-0.36,0.535-0.472,0.864s-0.174,0.672-0.187,1.03H376.526z"/>
</g>
<g>
	<defs>
		<rect id="SVGID_5_" x="49" y="61.494" width="579" height="124"/>
	</defs>
	<clipPath id="SVGID_6_">
		<use xlink:href="#SVGID_5_"  overflow="visible"/>
	</clipPath>

		<rect x="49" y="61.494" opacity="0" clip-path="url(#SVGID_6_)" fill-rule="evenodd" clip-rule="evenodd" fill="#FFFFFF" width="579" height="124"/>

		<line clip-path="url(#SVGID_6_)" fill="none" stroke="#A95B02" stroke-width="2" stroke-linejoin="round" stroke-miterlimit="10" x1="49.617" y1="80.586" x2="626.747" y2="80.586"/>

		<line clip-path="url(#SVGID_6_)" fill="none" stroke="#A95B02" stroke-width="2" stroke-linejoin="round" stroke-miterlimit="10" x1="100.759" y1="61.792" x2="100.759" y2="106.45"/>

		<line clip-path="url(#SVGID_6_)" fill="none" stroke="#A95B02" stroke-width="2" stroke-linejoin="round" stroke-miterlimit="10" x1="148.791" y1="61.792" x2="148.791" y2="106.45"/>

		<line clip-path="url(#SVGID_6_)" fill="none" stroke="#A95B02" stroke-width="2" stroke-linejoin="round" stroke-miterlimit="10" x1="196.823" y1="61.792" x2="196.823" y2="106.45"/>

		<line clip-path="url(#SVGID_6_)" fill="none" stroke="#A95B02" stroke-width="2" stroke-linejoin="round" stroke-miterlimit="10" x1="244.855" y1="61.792" x2="244.856" y2="106.45"/>

		<line clip-path="url(#SVGID_6_)" fill="none" stroke="#A95B02" stroke-width="2" stroke-linejoin="round" stroke-miterlimit="10" x1="292.888" y1="61.792" x2="292.888" y2="106.45"/>

		<line clip-path="url(#SVGID_6_)" fill="none" stroke="#A95B02" stroke-width="2" stroke-linejoin="round" stroke-miterlimit="10" x1="340.92" y1="61.792" x2="340.92" y2="106.45"/>

		<line clip-path="url(#SVGID_6_)" fill="none" stroke="#A95B02" stroke-width="2" stroke-linejoin="round" stroke-miterlimit="10" x1="388.953" y1="61.792" x2="388.953" y2="106.45"/>

		<line clip-path="url(#SVGID_6_)" fill="none" stroke="#A95B02" stroke-width="2" stroke-linejoin="round" stroke-miterlimit="10" x1="436.985" y1="61.792" x2="436.985" y2="106.45"/>

		<line clip-path="url(#SVGID_6_)" fill="none" stroke="#A95B02" stroke-width="2" stroke-linejoin="round" stroke-miterlimit="10" x1="485.018" y1="61.792" x2="485.018" y2="106.45"/>

		<line clip-path="url(#SVGID_6_)" fill="none" stroke="#A95B02" stroke-width="2" stroke-linejoin="round" stroke-miterlimit="10" x1="533.05" y1="61.792" x2="533.05" y2="106.45"/>

		<line clip-path="url(#SVGID_6_)" fill="none" stroke="#A95B02" stroke-width="2" stroke-linejoin="round" stroke-miterlimit="10" x1="581.082" y1="61.792" x2="581.082" y2="106.45"/>

		<line clip-path="url(#SVGID_6_)" fill="none" stroke="#305274" stroke-width="2" stroke-linejoin="round" stroke-miterlimit="10" x1="50.693" y1="154.825" x2="627.823" y2="154.825"/>

		<line clip-path="url(#SVGID_6_)" fill="none" stroke="#305274" stroke-width="2" stroke-linejoin="round" stroke-miterlimit="10" x1="101.835" y1="131.524" x2="101.835" y2="185.195"/>

		<line clip-path="url(#SVGID_6_)" fill="none" stroke="#305274" stroke-width="2" stroke-linejoin="round" stroke-miterlimit="10" x1="161.073" y1="131.524" x2="161.073" y2="185.195"/>

		<line clip-path="url(#SVGID_6_)" fill="none" stroke="#305274" stroke-width="2" stroke-linejoin="round" stroke-miterlimit="10" x1="191.865" y1="131.524" x2="191.865" y2="185.195"/>

		<line clip-path="url(#SVGID_6_)" fill="none" stroke="#305274" stroke-width="2" stroke-linejoin="round" stroke-miterlimit="10" x1="264.668" y1="130.243" x2="264.668" y2="183.914"/>

		<line clip-path="url(#SVGID_6_)" fill="none" stroke="#305274" stroke-width="2" stroke-linejoin="round" stroke-miterlimit="10" x1="301.818" y1="131.524" x2="301.818" y2="185.195"/>

		<line clip-path="url(#SVGID_6_)" fill="none" stroke="#305274" stroke-width="2" stroke-linejoin="round" stroke-miterlimit="10" x1="341.134" y1="131.524" x2="341.135" y2="185.195"/>

		<line clip-path="url(#SVGID_6_)" fill="none" stroke="#305274" stroke-width="2" stroke-linejoin="round" stroke-miterlimit="10" x1="378.822" y1="131.524" x2="378.822" y2="185.195"/>

		<line clip-path="url(#SVGID_6_)" fill="none" stroke="#305274" stroke-width="2" stroke-linejoin="round" stroke-miterlimit="10" x1="429.942" y1="131.524" x2="429.942" y2="185.195"/>

		<line clip-path="url(#SVGID_6_)" fill="none" stroke="#305274" stroke-width="2" stroke-linejoin="round" stroke-miterlimit="10" x1="478.206" y1="131.524" x2="478.206" y2="185.195"/>

		<line clip-path="url(#SVGID_6_)" fill="none" stroke="#305274" stroke-width="2" stroke-linejoin="round" stroke-miterlimit="10" x1="530.678" y1="131.524" x2="530.678" y2="185.195"/>

		<line clip-path="url(#SVGID_6_)" fill="none" stroke="#305274" stroke-width="2" stroke-linejoin="round" stroke-miterlimit="10" x1="582.158" y1="131.524" x2="582.158" y2="185.195"/>

		<line clip-path="url(#SVGID_6_)" fill="none" stroke="#305274" stroke-width="2" stroke-linejoin="round" stroke-miterlimit="10" x1="130.812" y1="130.47" x2="130.812" y2="184.141"/>

		<line clip-path="url(#SVGID_6_)" fill="none" stroke="#305274" stroke-width="2" stroke-linejoin="round" stroke-miterlimit="10" x1="225.88" y1="130.243" x2="225.881" y2="183.914"/>
</g>
</svg>
